<svg width="236" height="28" viewBox="0 0 236 28" fill="none" xmlns="http://www.w3.org/2000/svg">
<path d="M20.0758 1.42246C21.8902 1.42246 23.361 2.85539 23.361 4.62299V24.5C23.361 26.2676 21.8902 27.7005 20.0758 27.7005C18.2615 27.7005 16.7907 26.2676 16.7907 24.5V18.8002C16.7907 17.741 15.9094 16.8824 14.8222 16.8824H8.53877C7.4516 16.8824 6.57027 17.741 6.57027 18.8002V24.5C6.57027 26.2676 5.09947 27.7005 3.28514 27.7005C1.47081 27.7005 0 26.2676 0 24.5V4.623C0 2.85539 1.47081 1.42246 3.28514 1.42246C5.09947 1.42246 6.57027 2.85539 6.57027 4.62299V9.79877C6.57027 10.8579 7.4516 11.7166 8.53877 11.7166H14.8222C15.9094 11.7166 16.7907 10.8579 16.7907 9.79877V4.623C16.7907 2.85539 18.2615 1.42246 20.0758 1.42246Z" fill="url(#paint0_linear_728_13666)"/>
<path d="M48.3144 16.9198C48.3144 17.989 47.3709 18.7914 46.2735 18.7914H34.605C33.917 18.7914 33.3569 19.3695 33.5459 20.014C33.7573 20.7348 34.1078 21.3255 34.5975 21.7861C35.3659 22.4599 36.3009 22.7968 37.4023 22.7968C38.1243 22.7968 38.7494 22.6661 39.2776 22.4047C40.5393 21.7804 41.7277 20.7754 43.1427 20.7754H43.4989C45.6875 20.7754 47.2639 22.8494 45.8553 24.4813C44.9332 25.5793 43.7677 26.4403 42.3589 27.0642C40.95 27.6881 39.3747 28 37.6329 28C35.5324 28 33.6625 27.5633 32.0232 26.6898C30.3838 25.8164 29.1031 24.5686 28.1809 22.9465C27.2588 21.3244 26.7977 19.4278 26.7977 17.2567C26.7977 15.0856 27.246 13.1889 28.1425 11.5668C29.0646 9.94474 30.3454 8.69697 31.9848 7.82353C33.6241 6.95009 35.5068 6.51337 37.6329 6.51337C39.7077 6.51337 41.552 6.93761 43.1657 7.7861C44.7795 8.63458 46.0346 9.84492 46.9312 11.4171C47.8533 12.9893 48.3144 14.8235 48.3144 16.9198ZM40.803 15.2353C41.2379 15.2353 41.6009 14.8887 41.5219 14.4721C41.3802 13.7246 41.0188 13.1056 40.4377 12.615C39.6693 11.9661 38.7087 11.6417 37.556 11.6417C36.4546 11.6417 35.5196 11.9537 34.7512 12.5775C34.2081 13.0337 33.8156 13.6299 33.5737 14.3662C33.4268 14.8135 33.8022 15.2353 34.2843 15.2353H40.803Z" fill="url(#paint1_linear_728_13666)"/>
<path d="M50.4741 17.2192C50.4741 15.0731 50.884 13.1889 51.7037 11.5668C52.549 9.94474 53.6888 8.69697 55.1233 7.82353C56.5577 6.95009 58.1587 6.51337 59.9261 6.51337C61.4374 6.51337 62.7566 6.81283 63.8837 7.41176C64.2694 7.6122 64.625 7.8336 64.9506 8.07596C65.487 8.47539 66.5348 8.123 66.5348 7.4652C66.5348 7.10491 66.8346 6.81283 67.2044 6.81283H69.82C71.6343 6.81283 73.1051 8.24576 73.1051 10.0134V24.5C73.1051 26.2676 71.6343 27.7005 69.82 27.7005H69.5702C67.8938 27.7005 66.5348 26.3765 66.5348 24.7433C65.8944 25.7166 64.9979 26.5027 63.8452 27.1016C62.7182 27.7005 61.399 28 59.8877 28C58.1459 28 56.5577 27.5633 55.1233 26.6898C53.6888 25.7914 52.549 24.5312 51.7037 22.9091C50.884 21.262 50.4741 19.3654 50.4741 17.2192ZM66.5348 17.2567C66.5348 15.6595 66.0737 14.3993 65.1516 13.4759C64.2551 12.5526 63.1536 12.0909 61.8473 12.0909C60.5409 12.0909 59.4266 12.5526 58.5045 13.4759C57.608 14.3743 57.1597 15.6221 57.1597 17.2192C57.1597 18.8164 57.608 20.0891 58.5045 21.0374C59.4266 21.9608 60.5409 22.4225 61.8473 22.4225C63.1536 22.4225 64.2551 21.9608 65.1516 21.0374C66.0737 20.1141 66.5348 18.8538 66.5348 17.2567Z" fill="url(#paint2_linear_728_13666)"/>
<path d="M81.1435 0C82.9579 0 84.4287 1.43293 84.4287 3.20054V24.5C84.4287 26.2676 82.9579 27.7005 81.1435 27.7005C79.3292 27.7005 77.8584 26.2676 77.8584 24.5V3.20054C77.8584 1.43293 79.3292 0 81.1435 0Z" fill="url(#paint3_linear_728_13666)"/>
<path d="M98.7957 22.2727C100.09 22.2727 101.14 23.2951 101.14 24.5562V24.9866C101.14 26.4855 99.8923 27.7005 98.3539 27.7005H97.7967C95.4145 27.7005 93.5574 27.139 92.2255 26.016C90.8935 24.8681 90.2275 23.0089 90.2275 20.4385V13.4011C90.2275 12.6982 89.6426 12.1283 88.9211 12.1283C88.1996 12.1283 87.6147 11.5585 87.6147 10.8556V8.08556C87.6147 7.38265 88.1996 6.81283 88.9211 6.81283C89.6426 6.81283 90.2275 6.24302 90.2275 5.54011V4.26738C90.2275 2.86156 91.3972 1.72193 92.8402 1.72193H93.5126C95.327 1.72193 96.7977 3.15485 96.7977 4.92246V6.81283H98.3731C99.8797 6.81283 101.101 8.00275 101.101 9.47059C101.101 10.9384 99.8797 12.1283 98.3731 12.1283H96.7977V20.5134C96.7977 21.1373 96.9514 21.5865 97.2588 21.861C97.5662 22.1355 98.0785 22.2727 98.7957 22.2727Z" fill="url(#paint4_linear_728_13666)"/>
<path d="M117.978 6.58823C120.437 6.58823 122.41 7.38681 123.895 8.98396C125.381 10.5561 126.124 12.7273 126.124 15.4973V24.5187C126.124 26.276 124.662 27.7005 122.858 27.7005C121.054 27.7005 119.592 26.276 119.592 24.5187V16.3583C119.592 14.9608 119.221 13.8752 118.478 13.1016C117.735 12.328 116.736 11.9412 115.481 11.9412C114.226 11.9412 113.227 12.328 112.484 13.1016C111.741 13.8752 111.37 14.9608 111.37 16.3583V24.5C111.37 26.2676 109.899 27.7005 108.084 27.7005C106.27 27.7005 104.799 26.2676 104.799 24.5V3.20054C104.799 1.43293 106.27 0 108.084 0H108.997C110.307 0 111.37 1.03479 111.37 2.31126V6.12713C111.37 7.2061 113.103 7.88566 114.098 7.41176C115.25 6.86274 116.544 6.58823 117.978 6.58823Z" fill="url(#paint5_linear_728_13666)"/>
<path d="M165.441 1.42246C167.615 1.42246 169.378 3.13972 169.378 5.25808V24.5C169.378 26.2676 167.907 27.7005 166.093 27.7005C164.278 27.7005 162.808 26.2676 162.808 24.5V15.8426C162.808 14.6955 161.273 14.2546 160.634 15.2181L157.938 19.2833C157.213 20.3769 155.968 21.0374 154.632 21.0374H153.614C152.279 21.0374 151.035 20.3783 150.309 19.2866L147.575 15.1723C146.935 14.21 145.402 14.6513 145.402 15.7978V24.5C145.402 26.2676 143.931 27.7005 142.117 27.7005C140.303 27.7005 138.832 26.2676 138.832 24.5V5.25808C138.832 3.13972 140.594 1.42246 142.769 1.42246H144.438C145.781 1.42246 147.031 2.08926 147.755 3.19136L152.829 10.9208C153.45 11.8668 154.87 11.8636 155.486 10.9148L160.496 3.20632C161.217 2.09565 162.473 1.42246 163.822 1.42246H165.441Z" fill="url(#paint6_linear_728_13666)"/>
<path d="M172.796 17.2192C172.796 15.0731 173.206 13.1889 174.026 11.5668C174.871 9.94474 176.011 8.69697 177.445 7.82353C178.88 6.95009 180.481 6.51337 182.248 6.51337C183.759 6.51337 185.079 6.81283 186.206 7.41176C186.592 7.6122 186.947 7.8336 187.273 8.07596C187.809 8.47539 188.857 8.123 188.857 7.4652C188.857 7.10491 189.157 6.81283 189.527 6.81283H192.142C193.956 6.81283 195.427 8.24576 195.427 10.0134V24.5C195.427 26.2676 193.956 27.7005 192.142 27.7005H191.892C190.216 27.7005 188.857 26.3765 188.857 24.7433C188.217 25.7166 187.32 26.5027 186.167 27.1016C185.04 27.7005 183.721 28 182.21 28C180.468 28 178.88 27.5633 177.445 26.6898C176.011 25.7914 174.871 24.5312 174.026 22.9091C173.206 21.262 172.796 19.3654 172.796 17.2192ZM188.857 17.2567C188.857 15.6595 188.396 14.3993 187.474 13.4759C186.577 12.5526 185.476 12.0909 184.169 12.0909C182.863 12.0909 181.749 12.5526 180.827 13.4759C179.93 14.3743 179.482 15.6221 179.482 17.2192C179.482 18.8164 179.93 20.0891 180.827 21.0374C181.749 21.9608 182.863 22.4225 184.169 22.4225C185.476 22.4225 186.577 21.9608 187.474 21.0374C188.396 20.1141 188.857 18.8538 188.857 17.2567Z" fill="url(#paint7_linear_728_13666)"/>
<path d="M209.786 22.2727C211.081 22.2727 212.13 23.295 212.13 24.5561V24.9866C212.13 26.4855 210.883 27.7005 209.344 27.7005H208.787C206.405 27.7005 204.548 27.139 203.216 26.016C201.884 24.8681 201.218 23.0089 201.218 20.4385V13.4011C201.218 12.6982 200.633 12.1283 199.912 12.1283C199.19 12.1283 198.605 11.5585 198.605 10.8556V8.08556C198.605 7.38265 199.19 6.81283 199.912 6.81283C200.633 6.81283 201.218 6.24302 201.218 5.54011V4.26738C201.218 2.86156 202.388 1.72193 203.831 1.72193H204.503C206.317 1.72193 207.788 3.15485 207.788 4.92246V6.81283H209.363C210.87 6.81283 212.092 8.00275 212.092 9.47059C212.092 10.9384 210.87 12.1283 209.363 12.1283H207.788V20.5134C207.788 21.1373 207.942 21.5865 208.249 21.861C208.557 22.1355 209.069 22.2727 209.786 22.2727Z" fill="url(#paint8_linear_728_13666)"/>
<path d="M236 16.9198C236 17.989 235.057 18.7914 233.959 18.7914H224.417C222.582 18.7914 220.963 20.5445 222.283 21.7861C223.052 22.4599 223.987 22.7968 225.088 22.7968C225.81 22.7968 226.435 22.6661 226.963 22.4047C228.225 21.7804 229.413 20.7754 230.828 20.7754H231.185C233.373 20.7754 234.949 22.8494 233.541 24.4813C232.619 25.5793 231.453 26.4403 230.044 27.0642C228.636 27.6881 227.06 28 225.319 28C223.218 28 221.348 27.5633 219.709 26.6898C218.069 25.8164 216.789 24.5686 215.867 22.9465C214.944 21.3244 214.483 19.4278 214.483 17.2567C214.483 15.0856 214.932 13.1889 215.828 11.5668C216.75 9.94474 218.031 8.69697 219.67 7.82353C221.31 6.95009 223.192 6.51337 225.319 6.51337C227.393 6.51337 229.238 6.93761 230.851 7.7861C232.465 8.63458 233.72 9.84492 234.617 11.4171C235.539 12.9893 236 14.8235 236 16.9198ZM228.489 15.2353C228.924 15.2353 229.286 14.8887 229.207 14.4721C229.066 13.7246 228.704 13.1056 228.123 12.615C227.355 11.9661 226.394 11.6417 225.242 11.6417C224.14 11.6417 223.205 11.9537 222.437 12.5775C221.894 13.0337 221.501 13.6299 221.259 14.3662C221.112 14.8135 221.488 15.2353 221.97 15.2353H228.489Z" fill="url(#paint9_linear_728_13666)"/>
<defs>
<linearGradient id="paint0_linear_728_13666" x1="0" y1="14" x2="236" y2="14" gradientUnits="userSpaceOnUse">
<stop stop-color="#05697F"/>
<stop offset="1" stop-color="#0E9494"/>
</linearGradient>
<linearGradient id="paint1_linear_728_13666" x1="0" y1="14" x2="236" y2="14" gradientUnits="userSpaceOnUse">
<stop stop-color="#05697F"/>
<stop offset="1" stop-color="#0E9494"/>
</linearGradient>
<linearGradient id="paint2_linear_728_13666" x1="0" y1="14" x2="236" y2="14" gradientUnits="userSpaceOnUse">
<stop stop-color="#05697F"/>
<stop offset="1" stop-color="#0E9494"/>
</linearGradient>
<linearGradient id="paint3_linear_728_13666" x1="0" y1="14" x2="236" y2="14" gradientUnits="userSpaceOnUse">
<stop stop-color="#05697F"/>
<stop offset="1" stop-color="#0E9494"/>
</linearGradient>
<linearGradient id="paint4_linear_728_13666" x1="0" y1="14" x2="236" y2="14" gradientUnits="userSpaceOnUse">
<stop stop-color="#05697F"/>
<stop offset="1" stop-color="#0E9494"/>
</linearGradient>
<linearGradient id="paint5_linear_728_13666" x1="0" y1="14" x2="236" y2="14" gradientUnits="userSpaceOnUse">
<stop stop-color="#05697F"/>
<stop offset="1" stop-color="#0E9494"/>
</linearGradient>
<linearGradient id="paint6_linear_728_13666" x1="0" y1="14" x2="236" y2="14" gradientUnits="userSpaceOnUse">
<stop stop-color="#05697F"/>
<stop offset="1" stop-color="#0E9494"/>
</linearGradient>
<linearGradient id="paint7_linear_728_13666" x1="0" y1="14" x2="236" y2="14" gradientUnits="userSpaceOnUse">
<stop stop-color="#05697F"/>
<stop offset="1" stop-color="#0E9494"/>
</linearGradient>
<linearGradient id="paint8_linear_728_13666" x1="0" y1="14" x2="236" y2="14" gradientUnits="userSpaceOnUse">
<stop stop-color="#05697F"/>
<stop offset="1" stop-color="#0E9494"/>
</linearGradient>
<linearGradient id="paint9_linear_728_13666" x1="0" y1="14" x2="236" y2="14" gradientUnits="userSpaceOnUse">
<stop stop-color="#05697F"/>
<stop offset="1" stop-color="#0E9494"/>
</linearGradient>
</defs>
</svg>
