<svg width="229" height="58" viewBox="0 0 229 58" fill="none" xmlns="http://www.w3.org/2000/svg">
<g filter="url(#filter0_d_1159_6272)">
<mask id="path-1-inside-1_1159_6272" fill="white">
<path fill-rule="evenodd" clip-rule="evenodd" d="M22.5 4C14.4919 4 8 10.4919 8 18.5C8 26.5081 14.4919 33 22.5 33H106.494L114 46L121.506 33H206.5C214.508 33 221 26.5081 221 18.5C221 10.4919 214.508 4 206.5 4H22.5Z"/>
</mask>
<path fill-rule="evenodd" clip-rule="evenodd" d="M22.5 4C14.4919 4 8 10.4919 8 18.5C8 26.5081 14.4919 33 22.5 33H106.494L114 46L121.506 33H206.5C214.508 33 221 26.5081 221 18.5C221 10.4919 214.508 4 206.5 4H22.5Z" fill="white"/>
<path d="M106.494 33L107.36 32.5L107.072 32H106.494V33ZM114 46L113.134 46.5L114 48L114.866 46.5L114 46ZM121.506 33V32H120.928L120.64 32.5L121.506 33ZM9 18.5C9 11.0442 15.0442 5 22.5 5V3C13.9396 3 7 9.93959 7 18.5H9ZM22.5 32C15.0442 32 9 25.9558 9 18.5H7C7 27.0604 13.9396 34 22.5 34V32ZM106.494 32H22.5V34H106.494V32ZM114.866 45.5L107.36 32.5L105.628 33.5L113.134 46.5L114.866 45.5ZM120.64 32.5L113.134 45.5L114.866 46.5L122.372 33.5L120.64 32.5ZM206.5 32H121.506V34H206.5V32ZM220 18.5C220 25.9558 213.956 32 206.5 32V34C215.06 34 222 27.0604 222 18.5H220ZM206.5 5C213.956 5 220 11.0442 220 18.5H222C222 9.93959 215.06 3 206.5 3V5ZM22.5 5H206.5V3H22.5V5Z" fill="#CCEEE5" mask="url(#path-1-inside-1_1159_6272)"/>
</g>
<path d="M42.1768 23.127C40.0757 23.127 38.5713 22.0225 38.5713 20.5244C38.5713 19.3691 39.46 18.4297 40.6025 18.252V18.1885C39.606 17.998 38.9204 17.1665 38.9268 16.1572C38.9204 14.729 40.2979 13.6816 42.1768 13.6816C44.0557 13.6816 45.4331 14.729 45.4395 16.1572C45.4331 17.1665 44.7285 17.998 43.7637 18.1885V18.252C44.8809 18.4297 45.7822 19.3691 45.7822 20.5244C45.7822 22.0225 44.2715 23.127 42.1768 23.127ZM40.5645 20.334C40.5581 21.1211 41.2056 21.6733 42.1768 21.667C43.1479 21.6733 43.7954 21.1211 43.7891 20.334C43.7954 19.5405 43.1099 18.9565 42.1768 18.9502C41.2437 18.9565 40.5581 19.5342 40.5645 20.334ZM40.793 16.3477C40.7866 17.084 41.3643 17.5981 42.1768 17.6045C42.9829 17.5981 43.5669 17.084 43.5732 16.3477C43.5669 15.6304 42.9956 15.1289 42.1768 15.1289C41.3516 15.1289 40.7866 15.6304 40.793 16.3477ZM50.6572 23.127C48.353 23.127 46.9629 21.4131 46.9629 18.4043C46.9629 15.4019 48.3657 13.6816 50.6572 13.6816C52.9487 13.6816 54.3516 15.4019 54.3516 18.4043C54.3516 21.4258 52.9551 23.127 50.6572 23.127ZM48.918 18.4043C48.9053 20.5244 49.5908 21.5527 50.6572 21.5527C51.7236 21.5527 52.4028 20.5244 52.3965 18.4043C52.4028 16.3032 51.7173 15.2495 50.6572 15.2432C49.5972 15.2495 48.918 16.3032 48.918 18.4043ZM58.084 18.4043C56.7065 18.4043 55.9639 17.4014 55.9639 15.9541C55.9639 14.5005 56.7446 13.4912 58.084 13.4912C59.4614 13.4912 60.1978 14.5005 60.2041 15.9541C60.1978 17.4141 59.4424 18.4043 58.084 18.4043ZM57.2588 15.9541C57.2651 16.7476 57.5508 17.2681 58.084 17.2744C58.6299 17.2681 58.9028 16.7476 58.9092 15.9541C58.9028 15.1606 58.6553 14.6211 58.084 14.6211C57.5444 14.6274 57.2651 15.1733 57.2588 15.9541ZM57.2842 23L63.6064 13.8086H65.0283L58.7061 23H57.2842ZM62.1719 20.8545C62.1719 19.4009 62.9526 18.3979 64.2793 18.3916C65.6694 18.3979 66.4058 19.4009 66.4121 20.8545C66.4058 22.3145 65.6504 23.3047 64.2793 23.3047C62.9146 23.3047 62.1719 22.3018 62.1719 20.8545ZM63.4668 20.8545C63.4731 21.6479 63.7588 22.1748 64.2793 22.1748C64.8379 22.1748 65.1108 21.6479 65.1172 20.8545C65.1108 20.061 64.8569 19.5215 64.2793 19.5342C63.7461 19.5278 63.4731 20.0737 63.4668 20.8545ZM126.042 13.8086V23H124.125V15.624H124.074L121.967 16.9443V15.2559L124.239 13.8086H126.042ZM131.742 23.127C129.438 23.127 128.048 21.4131 128.048 18.4043C128.048 15.4019 129.451 13.6816 131.742 13.6816C134.034 13.6816 135.437 15.4019 135.437 18.4043C135.437 21.4258 134.04 23.127 131.742 23.127ZM130.003 18.4043C129.99 20.5244 130.676 21.5527 131.742 21.5527C132.809 21.5527 133.488 20.5244 133.481 18.4043C133.488 16.3032 132.802 15.2495 131.742 15.2432C130.682 15.2495 130.003 16.3032 130.003 18.4043ZM145.859 13.5801V14.6084C145.853 15.9985 145.878 17.6362 145.339 20.1309L143.752 19.9658C143.942 19.0898 144.063 18.3091 144.139 17.6045L137.43 17.9854L137.201 16.6016L144.234 16.373C144.266 15.8271 144.266 15.332 144.272 14.875H137.582V13.5801H145.859ZM136.376 22.835V21.5146H140.146V18.7217H141.759V21.5146H146.913V22.835H136.376ZM157.285 12.6279V20.9307H155.66V12.6279H157.285ZM147.789 16.2715C147.789 14.5767 149.173 13.3579 150.95 13.3643C152.721 13.3579 154.105 14.5767 154.111 16.2715C154.105 17.9917 152.721 19.2041 150.95 19.2041C149.173 19.2041 147.789 17.9917 147.789 16.2715ZM149.376 16.2715C149.363 17.2363 150.042 17.7949 150.95 17.7949C151.826 17.7949 152.505 17.2363 152.512 16.2715C152.505 15.332 151.826 14.7671 150.95 14.7734C150.042 14.7671 149.363 15.332 149.376 16.2715ZM149.541 23.9648V20.0928H151.179V22.6699H157.59V23.9648H149.541Z" fill="#0E9494"/>
<path d="M80.4404 12.6152V24.1934H78.8027V12.6152H80.4404ZM71.1094 17.541C71.103 15.021 72.3916 13.4277 74.1689 13.4277C75.9082 13.4277 77.2031 15.021 77.2031 17.541C77.2031 20.0801 75.9082 21.667 74.1689 21.667C72.3916 21.667 71.103 20.0801 71.1094 17.541ZM72.6709 17.541C72.6646 19.2612 73.2676 20.2007 74.1689 20.1943C75.0449 20.2007 75.6353 19.2612 75.6416 17.541C75.6353 15.8271 75.0449 14.8877 74.1689 14.8877C73.2676 14.8877 72.6646 15.8271 72.6709 17.541ZM86.2168 14.4307C86.2104 15.8335 87.0293 17.1792 88.8574 17.7441L87.9941 19.001C86.769 18.5947 85.9121 17.8076 85.417 16.7983C84.9155 17.96 84.0205 18.874 82.7002 19.3184L81.8242 18.0488C83.7539 17.4077 84.5791 15.8716 84.5918 14.2783V13.2246H86.2168V14.4307ZM83.4238 21.9336C83.4175 20.5308 84.9473 19.6992 87.3848 19.6992C89.7778 19.6992 91.2759 20.5308 91.2822 21.9336C91.2759 23.3491 89.7778 24.1743 87.3848 24.168C84.9473 24.1743 83.4175 23.3491 83.4238 21.9336ZM85.0488 21.9336C85.0361 22.5874 85.8677 22.8984 87.3848 22.8984C88.8828 22.8984 89.6826 22.5874 89.6826 21.9336C89.6826 21.3052 88.8828 20.9688 87.3848 20.9688C85.8677 20.9688 85.0361 21.3052 85.0488 21.9336ZM89.543 19.4707V12.6152H91.168V15.3193H92.7295V16.665H91.168V19.4707H89.543ZM96.5254 12.958C98.2837 12.9517 99.604 14.0562 99.6104 15.5986C99.604 17.1284 98.2837 18.2202 96.5254 18.2266C94.7417 18.2202 93.415 17.1284 93.415 15.5986C93.415 14.0562 94.7417 12.9517 96.5254 12.958ZM94.9893 15.5986C94.9766 16.4238 95.6304 16.9126 96.5254 16.9189C97.4014 16.9126 98.0425 16.4238 98.0488 15.5986C98.0425 14.7671 97.4014 14.2783 96.5254 14.2783C95.6367 14.2783 94.9766 14.7671 94.9893 15.5986ZM95.1543 20.1309V18.8867H102.911V22.0225H96.7666V22.7715H103.229V24.041H95.1797V20.8418H101.299V20.1309H95.1543ZM101.286 18.4043V12.6152H102.911V18.4043H101.286ZM111.963 15.2305C111.957 17.3506 112.921 19.4771 114.883 20.3086L113.931 21.6035C112.61 21.0068 111.696 19.8516 111.169 18.4233C110.649 19.9849 109.703 21.2417 108.294 21.8828L107.316 20.5371C109.335 19.6865 110.319 17.4712 110.325 15.2305V13.5039H111.963V15.2305ZM115.505 24.1934V12.6152H117.143V24.1934H115.505ZM169.092 13.4658V14.6465H162.236V13.4658H164.852V12.5391H166.464V13.4658H169.092ZM161.894 18.9756C162.789 18.9756 163.798 18.9756 164.852 18.9438V18.3281C163.563 18.1504 162.763 17.5537 162.77 16.665C162.763 15.5923 163.912 14.9067 165.664 14.9131C167.372 14.9067 168.546 15.5923 168.559 16.665C168.546 17.5474 167.727 18.1504 166.464 18.3281V18.8867C167.391 18.8359 168.317 18.7661 169.193 18.6582L169.308 19.7373C166.845 20.1626 164.141 20.2007 162.109 20.207L161.894 18.9756ZM163.519 22.1367V20.8926H171.555V24.168H169.904V22.1367H163.519ZM164.331 16.665C164.325 17.084 164.839 17.3062 165.664 17.2998C166.458 17.3062 166.997 17.084 166.997 16.665C166.997 16.2144 166.458 15.9922 165.664 15.9922C164.839 15.9922 164.325 16.2144 164.331 16.665ZM169.904 20.4355V12.6406H171.555V20.4355H169.904ZM183.641 18.0742V19.3691H173.078V18.0742H183.641ZM174.246 21.6543V20.3594H182.358V24.1807H180.771V21.6543H174.246ZM174.36 17.1475V13.0088H182.371V14.2783H175.973V15.8525H182.485V17.1475H174.36ZM186.941 13.8086L186.776 20.2451H185.151L184.986 13.8086H186.941ZM184.91 22.0479C184.897 21.4639 185.38 20.9878 185.977 20.9941C186.542 20.9878 187.03 21.4639 187.03 22.0479C187.03 22.6382 186.542 23.1143 185.977 23.1143C185.38 23.1143 184.897 22.6382 184.91 22.0479Z" fill="black"/>
<defs>
<filter id="filter0_d_1159_6272" x="0" y="0" width="229" height="58" filterUnits="userSpaceOnUse" color-interpolation-filters="sRGB">
<feFlood flood-opacity="0" result="BackgroundImageFix"/>
<feColorMatrix in="SourceAlpha" type="matrix" values="0 0 0 0 0 0 0 0 0 0 0 0 0 0 0 0 0 0 127 0" result="hardAlpha"/>
<feOffset dy="4"/>
<feGaussianBlur stdDeviation="4"/>
<feComposite in2="hardAlpha" operator="out"/>
<feColorMatrix type="matrix" values="0 0 0 0 0.054902 0 0 0 0 0.580392 0 0 0 0 0.580392 0 0 0 0.1 0"/>
<feBlend mode="normal" in2="BackgroundImageFix" result="effect1_dropShadow_1159_6272"/>
<feBlend mode="normal" in="SourceGraphic" in2="effect1_dropShadow_1159_6272" result="shape"/>
</filter>
</defs>
</svg>
