<svg width="229" height="58" viewBox="0 0 229 58" fill="none" xmlns="http://www.w3.org/2000/svg">
<g filter="url(#filter0_d_1159_6442)">
<mask id="path-1-inside-1_1159_6442" fill="white">
<path fill-rule="evenodd" clip-rule="evenodd" d="M22.5 4C14.4919 4 8 10.4919 8 18.5C8 26.5081 14.4919 33 22.5 33H106.494L114 46L121.506 33H206.5C214.508 33 221 26.5081 221 18.5C221 10.4919 214.508 4 206.5 4H22.5Z"/>
</mask>
<path fill-rule="evenodd" clip-rule="evenodd" d="M22.5 4C14.4919 4 8 10.4919 8 18.5C8 26.5081 14.4919 33 22.5 33H106.494L114 46L121.506 33H206.5C214.508 33 221 26.5081 221 18.5C221 10.4919 214.508 4 206.5 4H22.5Z" fill="white"/>
<path d="M106.494 33L107.36 32.5L107.072 32H106.494V33ZM114 46L113.134 46.5L114 48L114.866 46.5L114 46ZM121.506 33V32H120.928L120.64 32.5L121.506 33ZM9 18.5C9 11.0442 15.0442 5 22.5 5V3C13.9396 3 7 9.93959 7 18.5H9ZM22.5 32C15.0442 32 9 25.9558 9 18.5H7C7 27.0604 13.9396 34 22.5 34V32ZM106.494 32H22.5V34H106.494V32ZM114.866 45.5L107.36 32.5L105.628 33.5L113.134 46.5L114.866 45.5ZM120.64 32.5L113.134 45.5L114.866 46.5L122.372 33.5L120.64 32.5ZM206.5 32H121.506V34H206.5V32ZM220 18.5C220 25.9558 213.956 32 206.5 32V34C215.06 34 222 27.0604 222 18.5H220ZM206.5 5C213.956 5 220 11.0442 220 18.5H222C222 9.93959 215.06 3 206.5 3V5ZM22.5 5H206.5V3H22.5V5Z" fill="#F5BE9D" mask="url(#path-1-inside-1_1159_6442)"/>
</g>
<path d="M42.1768 23.127C41.487 23.127 40.867 23.0148 40.3169 22.7905C39.771 22.5662 39.3436 22.2573 39.0347 21.8638C38.7257 21.466 38.5713 21.0195 38.5713 20.5244C38.5713 20.1478 38.6602 19.7965 38.8379 19.4707C39.0156 19.1449 39.259 18.8761 39.5679 18.6646C39.881 18.4487 40.2259 18.3112 40.6025 18.252V18.1885C40.2767 18.125 39.9868 17.998 39.7329 17.8076C39.479 17.613 39.2801 17.3717 39.1362 17.084C38.9966 16.7962 38.9268 16.4873 38.9268 16.1572C38.9268 15.6833 39.0664 15.2601 39.3457 14.8877C39.625 14.5111 40.0122 14.217 40.5073 14.0054C41.0024 13.7896 41.5589 13.6816 42.1768 13.6816C42.7946 13.6816 43.3511 13.7896 43.8462 14.0054C44.3413 14.217 44.7285 14.5111 45.0078 14.8877C45.2913 15.2601 45.4352 15.6833 45.4395 16.1572C45.4352 16.4915 45.3612 16.8026 45.2173 17.0903C45.0734 17.3739 44.8745 17.613 44.6206 17.8076C44.3667 17.998 44.0811 18.125 43.7637 18.1885V18.252C44.1361 18.3112 44.4746 18.4487 44.7793 18.6646C45.0882 18.8761 45.3315 19.1449 45.5093 19.4707C45.6912 19.7965 45.7822 20.1478 45.7822 20.5244C45.7822 21.0195 45.6278 21.466 45.3188 21.8638C45.0099 22.2573 44.5804 22.5662 44.0303 22.7905C43.4844 23.0148 42.8665 23.127 42.1768 23.127ZM42.1768 21.667C42.4941 21.667 42.7734 21.612 43.0146 21.502C43.2601 21.3877 43.4505 21.229 43.5859 21.0259C43.7214 20.8228 43.7891 20.5921 43.7891 20.334C43.7891 20.0716 43.7192 19.8346 43.5796 19.623C43.4442 19.4115 43.2537 19.2464 43.0083 19.1279C42.7629 19.0094 42.4857 18.9502 42.1768 18.9502C41.8678 18.9502 41.5885 19.0094 41.3389 19.1279C41.0934 19.2464 40.9009 19.4115 40.7612 19.623C40.6258 19.8346 40.5602 20.0716 40.5645 20.334C40.5602 20.5921 40.6237 20.8228 40.7549 21.0259C40.8903 21.229 41.0807 21.3877 41.3262 21.502C41.5716 21.612 41.8551 21.667 42.1768 21.667ZM42.1768 17.6045C42.4434 17.6045 42.6825 17.5516 42.894 17.4458C43.1099 17.3358 43.277 17.1855 43.3955 16.9951C43.514 16.8047 43.5732 16.5889 43.5732 16.3477C43.5732 16.1149 43.514 15.9054 43.3955 15.7192C43.277 15.533 43.112 15.3892 42.9004 15.2876C42.6888 15.1818 42.4476 15.1289 42.1768 15.1289C41.9059 15.1289 41.6647 15.1797 41.4531 15.2812C41.2458 15.3828 41.0828 15.5267 40.9644 15.7129C40.8501 15.8991 40.793 16.1107 40.793 16.3477C40.793 16.5889 40.8522 16.8047 40.9707 16.9951C41.0892 17.1855 41.2521 17.3358 41.4595 17.4458C41.6711 17.5516 41.9102 17.6045 42.1768 17.6045ZM50.6572 23.127C49.8913 23.127 49.2311 22.9429 48.6768 22.5747C48.1266 22.2023 47.7035 21.6628 47.4072 20.9561C47.111 20.2493 46.9629 19.3988 46.9629 18.4043C46.9629 17.4098 47.111 16.5592 47.4072 15.8525C47.7035 15.1458 48.1266 14.6084 48.6768 14.2402C49.2311 13.8678 49.8913 13.6816 50.6572 13.6816C51.4189 13.6816 52.077 13.8678 52.6313 14.2402C53.1857 14.6084 53.611 15.1479 53.9072 15.8589C54.2035 16.5656 54.3516 17.4141 54.3516 18.4043C54.3516 19.403 54.2035 20.2557 53.9072 20.9624C53.611 21.6691 53.1857 22.2065 52.6313 22.5747C52.0812 22.9429 51.4232 23.127 50.6572 23.127ZM50.6572 21.5527C51.0127 21.5527 51.3195 21.4385 51.5776 21.21C51.84 20.9814 52.041 20.6366 52.1807 20.1753C52.3245 19.714 52.3965 19.1449 52.3965 18.4678C52.3965 17.4141 52.2441 16.6143 51.9395 16.0684C51.6348 15.5182 51.2074 15.2432 50.6572 15.2432C50.1071 15.2432 49.6797 15.5182 49.375 16.0684C49.0703 16.6143 48.918 17.4141 48.918 18.4678C48.918 19.1449 48.9878 19.714 49.1274 20.1753C49.2713 20.6366 49.4723 20.9814 49.7305 21.21C49.9928 21.4385 50.3018 21.5527 50.6572 21.5527ZM58.084 18.4043C57.6354 18.4043 57.2524 18.3027 56.9351 18.0996C56.6177 17.8923 56.3765 17.6045 56.2114 17.2363C56.0464 16.8682 55.9639 16.4408 55.9639 15.9541C55.9639 15.4674 56.0464 15.0379 56.2114 14.6655C56.3807 14.2931 56.624 14.0054 56.9414 13.8022C57.263 13.5949 57.6439 13.4912 58.084 13.4912C58.5368 13.4912 58.9198 13.5949 59.2329 13.8022C59.5503 14.0054 59.7894 14.2931 59.9502 14.6655C60.1152 15.0337 60.1999 15.4632 60.2041 15.9541C60.1999 16.445 60.1152 16.8745 59.9502 17.2427C59.7852 17.6108 59.5439 17.8965 59.2266 18.0996C58.9092 18.3027 58.5283 18.4043 58.084 18.4043ZM58.084 17.2744C58.3506 17.2744 58.5516 17.1559 58.687 16.9189C58.8267 16.682 58.9007 16.3604 58.9092 15.9541C58.9007 15.5394 58.8288 15.2135 58.6934 14.9766C58.5622 14.7396 58.359 14.6211 58.084 14.6211C57.8174 14.6211 57.6121 14.7438 57.4683 14.9893C57.3286 15.2305 57.2588 15.5521 57.2588 15.9541C57.2588 16.3561 57.3307 16.6777 57.4746 16.9189C57.6185 17.1559 57.8216 17.2744 58.084 17.2744ZM64.2793 23.3047C63.835 23.3047 63.4541 23.2031 63.1367 23C62.8193 22.7926 62.5781 22.5049 62.4131 22.1367C62.2523 21.7686 62.1719 21.3411 62.1719 20.8545C62.1719 20.3678 62.2544 19.9383 62.4194 19.5659C62.5887 19.1935 62.832 18.9058 63.1494 18.7026C63.4668 18.4953 63.8434 18.3916 64.2793 18.3916C64.7321 18.3916 65.1172 18.4953 65.4346 18.7026C65.752 18.9058 65.9932 19.1935 66.1582 19.5659C66.3232 19.9341 66.4079 20.3636 66.4121 20.8545C66.4079 21.3454 66.3232 21.7749 66.1582 22.1431C65.9932 22.5112 65.7498 22.7969 65.4282 23C65.1108 23.2031 64.7279 23.3047 64.2793 23.3047ZM64.2793 22.1748C64.5501 22.1748 64.7554 22.0584 64.895 21.8257C65.0347 21.5929 65.1087 21.2692 65.1172 20.8545C65.1087 20.4398 65.0368 20.116 64.9014 19.8833C64.766 19.6463 64.5586 19.5299 64.2793 19.5342C64.0212 19.5342 63.8201 19.6548 63.6763 19.896C63.5366 20.1372 63.4668 20.4567 63.4668 20.8545C63.4668 21.2607 63.5366 21.5824 63.6763 21.8193C63.8201 22.0563 64.0212 22.1748 64.2793 22.1748ZM63.6064 13.8086H65.0283L58.7061 23H57.2842L63.6064 13.8086ZM126.042 23H124.125V15.624H124.074L121.967 16.9443V15.2559L124.239 13.8086H126.042V23ZM131.742 23.127C130.976 23.127 130.316 22.9429 129.762 22.5747C129.212 22.2023 128.788 21.6628 128.492 20.9561C128.196 20.2493 128.048 19.3988 128.048 18.4043C128.048 17.4098 128.196 16.5592 128.492 15.8525C128.788 15.1458 129.212 14.6084 129.762 14.2402C130.316 13.8678 130.976 13.6816 131.742 13.6816C132.504 13.6816 133.162 13.8678 133.716 14.2402C134.271 14.6084 134.696 15.1479 134.992 15.8589C135.288 16.5656 135.437 17.4141 135.437 18.4043C135.437 19.403 135.288 20.2557 134.992 20.9624C134.696 21.6691 134.271 22.2065 133.716 22.5747C133.166 22.9429 132.508 23.127 131.742 23.127ZM131.742 21.5527C132.098 21.5527 132.404 21.4385 132.663 21.21C132.925 20.9814 133.126 20.6366 133.266 20.1753C133.41 19.714 133.481 19.1449 133.481 18.4678C133.481 17.4141 133.329 16.6143 133.024 16.0684C132.72 15.5182 132.292 15.2432 131.742 15.2432C131.192 15.2432 130.765 15.5182 130.46 16.0684C130.155 16.6143 130.003 17.4141 130.003 18.4678C130.003 19.1449 130.073 19.714 130.212 20.1753C130.356 20.6366 130.557 20.9814 130.815 21.21C131.078 21.4385 131.387 21.5527 131.742 21.5527ZM145.859 14.6084V14.7988C145.859 15.3955 145.849 15.9351 145.828 16.4175C145.811 16.8957 145.764 17.45 145.688 18.0806C145.612 18.7069 145.495 19.3903 145.339 20.1309L143.752 19.9658C143.917 19.1999 144.044 18.4128 144.133 17.6045L137.43 17.9854L137.201 16.6016L144.228 16.373C144.249 16.0176 144.264 15.5182 144.272 14.875H137.582V13.5801H145.859V14.6084ZM146.913 22.835H136.376V21.5146H140.146V18.7217H141.759V21.5146H146.913V22.835ZM157.285 20.9307H155.66V12.6279H157.285V20.9307ZM157.59 23.9648H149.541V20.0928H151.179V22.6699H157.59V23.9648ZM150.95 13.3643C151.538 13.3643 152.072 13.4891 152.55 13.7388C153.032 13.9884 153.413 14.3354 153.692 14.7798C153.972 15.2199 154.111 15.7171 154.111 16.2715C154.111 16.8343 153.972 17.34 153.692 17.7886C153.417 18.2329 153.039 18.5799 152.556 18.8296C152.074 19.0793 151.538 19.2041 150.95 19.2041C150.362 19.2041 149.827 19.0793 149.344 18.8296C148.862 18.5799 148.481 18.2329 148.202 17.7886C147.927 17.34 147.789 16.8343 147.789 16.2715C147.789 15.7171 147.929 15.2199 148.208 14.7798C148.487 14.3354 148.866 13.9884 149.344 13.7388C149.827 13.4891 150.362 13.3643 150.95 13.3643ZM150.95 14.7734C150.65 14.7692 150.379 14.8285 150.138 14.9512C149.896 15.0697 149.708 15.2432 149.573 15.4717C149.437 15.7002 149.372 15.9668 149.376 16.2715C149.372 16.5846 149.437 16.8576 149.573 17.0903C149.708 17.3188 149.894 17.4945 150.131 17.6172C150.373 17.7357 150.646 17.7949 150.95 17.7949C151.246 17.7949 151.511 17.7357 151.744 17.6172C151.981 17.4945 152.167 17.3188 152.302 17.0903C152.442 16.8576 152.512 16.5846 152.512 16.2715C152.512 15.9668 152.442 15.7002 152.302 15.4717C152.167 15.2432 151.981 15.0697 151.744 14.9512C151.507 14.8285 151.242 14.7692 150.95 14.7734Z" fill="#F8825C"/>
<path d="M80.4404 24.1934H78.8027V12.6152H80.4404V24.1934ZM74.1689 13.4277C74.7487 13.4277 75.2671 13.597 75.7241 13.9355C76.1854 14.2741 76.5472 14.7544 76.8096 15.3765C77.0719 15.9985 77.2031 16.7201 77.2031 17.541C77.2031 18.3704 77.0719 19.0983 76.8096 19.7246C76.5472 20.3467 76.1854 20.827 75.7241 21.1655C75.2671 21.4998 74.7487 21.667 74.1689 21.667C73.5765 21.667 73.0475 21.4998 72.582 21.1655C72.1165 20.827 71.7526 20.3467 71.4902 19.7246C71.2321 19.0983 71.1051 18.3704 71.1094 17.541C71.1051 16.7201 71.2321 15.9985 71.4902 15.3765C71.7526 14.7544 72.1165 14.2741 72.582 13.9355C73.0475 13.597 73.5765 13.4277 74.1689 13.4277ZM74.1689 14.8877C73.8685 14.8877 73.604 14.9914 73.3755 15.1987C73.1512 15.4019 72.9777 15.7023 72.855 16.1001C72.7323 16.4979 72.6709 16.9782 72.6709 17.541C72.6709 18.1081 72.7323 18.5905 72.855 18.9883C72.9777 19.3861 73.1512 19.6865 73.3755 19.8896C73.604 20.0928 73.8685 20.1943 74.1689 20.1943C74.4652 20.1943 74.7233 20.0928 74.9434 19.8896C75.1634 19.6823 75.3348 19.3797 75.4575 18.9819C75.5802 18.5841 75.6416 18.1038 75.6416 17.541C75.6416 16.9824 75.5802 16.5042 75.4575 16.1064C75.3348 15.7044 75.1613 15.4019 74.937 15.1987C74.717 14.9914 74.4609 14.8877 74.1689 14.8877ZM86.2168 14.4307C86.2168 14.9089 86.312 15.3659 86.5024 15.8018C86.6929 16.2334 86.9849 16.6206 87.3784 16.9634C87.7762 17.3019 88.2692 17.5622 88.8574 17.7441L87.9941 19.001C87.3932 18.8021 86.877 18.5143 86.4453 18.1377C86.0137 17.7611 85.6709 17.3146 85.417 16.7983C85.1589 17.395 84.8013 17.9113 84.3442 18.3472C83.8914 18.7788 83.3434 19.1025 82.7002 19.3184L81.8242 18.0488C82.4463 17.8415 82.9626 17.5452 83.373 17.1602C83.7835 16.7751 84.0882 16.3371 84.2871 15.8462C84.486 15.3511 84.5876 14.8285 84.5918 14.2783V13.2246H86.2168V14.4307ZM91.168 15.3193H92.7295V16.665H91.168V19.4707H89.543V12.6152H91.168V15.3193ZM87.3848 19.6992C88.1803 19.6992 88.8701 19.7881 89.4541 19.9658C90.0381 20.1436 90.4888 20.3996 90.8062 20.7339C91.1235 21.0682 91.2822 21.4681 91.2822 21.9336C91.2822 22.4033 91.1235 22.8053 90.8062 23.1396C90.493 23.474 90.0423 23.7279 89.4541 23.9014C88.8701 24.0791 88.1803 24.168 87.3848 24.168C86.5723 24.168 85.8677 24.0791 85.271 23.9014C84.6785 23.7279 84.2215 23.474 83.8999 23.1396C83.5825 22.8053 83.4238 22.4033 83.4238 21.9336C83.4238 21.4681 83.5825 21.0682 83.8999 20.7339C84.2215 20.3996 84.6807 20.1436 85.2773 19.9658C85.874 19.7881 86.5765 19.6992 87.3848 19.6992ZM87.3848 20.9688C86.6188 20.9688 86.0369 21.0513 85.6392 21.2163C85.2414 21.3771 85.0446 21.6162 85.0488 21.9336C85.0361 22.5768 85.8148 22.8984 87.3848 22.8984C88.9167 22.8984 89.6826 22.5768 89.6826 21.9336C89.6826 21.6162 89.4858 21.3771 89.0923 21.2163C88.703 21.0513 88.1338 20.9688 87.3848 20.9688ZM96.5254 12.958C97.1051 12.958 97.6299 13.0701 98.0996 13.2944C98.5693 13.5187 98.9375 13.8319 99.2041 14.2339C99.4749 14.6359 99.6104 15.0908 99.6104 15.5986C99.6104 16.098 99.4749 16.5487 99.2041 16.9507C98.9375 17.3485 98.5693 17.6616 98.0996 17.8901C97.6299 18.1144 97.1051 18.2266 96.5254 18.2266C95.9372 18.2266 95.4061 18.1144 94.9321 17.8901C94.4582 17.6616 94.0858 17.3485 93.8149 16.9507C93.5483 16.5487 93.415 16.098 93.415 15.5986C93.415 15.0908 93.5483 14.6359 93.8149 14.2339C94.0858 13.8319 94.4561 13.5187 94.9258 13.2944C95.3997 13.0701 95.9329 12.958 96.5254 12.958ZM96.5254 14.2783C96.2292 14.2783 95.9626 14.3312 95.7256 14.437C95.4928 14.5386 95.3109 14.6909 95.1797 14.894C95.0485 15.0929 94.985 15.3278 94.9893 15.5986C94.985 15.8695 95.0485 16.1043 95.1797 16.3032C95.3109 16.5021 95.4928 16.6545 95.7256 16.7603C95.9626 16.866 96.2292 16.9189 96.5254 16.9189C96.8174 16.9189 97.0776 16.866 97.3062 16.7603C97.5389 16.6545 97.7209 16.5021 97.8521 16.3032C97.9832 16.1043 98.0488 15.8695 98.0488 15.5986C98.0488 15.3236 97.9832 15.0866 97.8521 14.8877C97.7209 14.6888 97.5389 14.5386 97.3062 14.437C97.0776 14.3312 96.8174 14.2783 96.5254 14.2783ZM102.911 18.4043H101.286V12.6152H102.911V18.4043ZM102.911 22.0225H96.7666V22.7715H103.229V24.041H95.1797V20.8418H101.299V20.1309H95.1543V18.8867H102.911V22.0225ZM111.963 15.2305C111.963 15.9541 112.073 16.6545 112.293 17.3315C112.513 18.0044 112.841 18.6032 113.277 19.1279C113.717 19.6484 114.252 20.042 114.883 20.3086L113.931 21.6035C113.287 21.3115 112.733 20.8947 112.268 20.353C111.806 19.8071 111.44 19.166 111.169 18.4297C110.899 19.2337 110.522 19.932 110.04 20.5244C109.561 21.1169 108.979 21.5697 108.294 21.8828L107.316 20.5371C107.968 20.262 108.518 19.8537 108.967 19.312C109.415 18.7661 109.752 18.1419 109.976 17.4395C110.205 16.737 110.321 16.0007 110.325 15.2305V13.5039H111.963V15.2305ZM117.143 24.1934H115.505V12.6152H117.143V24.1934ZM169.092 14.6465H162.236V13.4658H164.852V12.5391H166.464V13.4658H169.092V14.6465ZM165.664 14.9131C166.231 14.9131 166.733 14.985 167.168 15.1289C167.604 15.2686 167.943 15.4717 168.184 15.7383C168.43 16.0007 168.554 16.3096 168.559 16.665C168.554 17.1009 168.364 17.4648 167.987 17.7568C167.615 18.0488 167.107 18.2393 166.464 18.3281V18.8804C167.475 18.8338 168.385 18.7598 169.193 18.6582L169.308 19.7373C168.212 19.9277 167.073 20.0547 165.893 20.1182C164.712 20.1774 163.451 20.207 162.109 20.207L161.894 18.9756C162.99 18.9756 163.976 18.965 164.852 18.9438V18.3281C164.2 18.2393 163.688 18.0488 163.315 17.7568C162.947 17.4648 162.765 17.1009 162.77 16.665C162.765 16.3096 162.882 16.0007 163.119 15.7383C163.36 15.4717 163.698 15.2686 164.134 15.1289C164.574 14.985 165.084 14.9131 165.664 14.9131ZM165.664 15.9922C165.241 15.9922 164.913 16.0493 164.68 16.1636C164.447 16.2736 164.331 16.4408 164.331 16.665C164.331 16.8724 164.447 17.0311 164.68 17.1411C164.917 17.2469 165.245 17.2998 165.664 17.2998C166.07 17.2998 166.394 17.2448 166.635 17.1348C166.876 17.0247 166.997 16.8682 166.997 16.665C166.997 16.445 166.876 16.2778 166.635 16.1636C166.398 16.0493 166.075 15.9922 165.664 15.9922ZM171.555 20.4355H169.904V12.6406H171.555V20.4355ZM171.555 24.168H169.904V22.1367H163.519V20.8926H171.555V24.168ZM183.641 19.3691H173.078V18.0742H183.641V19.3691ZM182.358 24.1807H180.771V21.6543H174.246V20.3594H182.358V24.1807ZM182.485 17.1475H174.36V13.0088H182.371V14.2783H175.973V15.8525H182.485V17.1475ZM186.776 20.2451H185.151L184.986 13.8086H186.941L186.776 20.2451ZM185.977 23.1143C185.782 23.1143 185.602 23.0656 185.437 22.9683C185.272 22.8709 185.141 22.7419 185.043 22.5811C184.95 22.416 184.906 22.2383 184.91 22.0479C184.906 21.8574 184.95 21.6818 185.043 21.521C185.141 21.3602 185.272 21.2332 185.437 21.1401C185.602 21.0428 185.782 20.9941 185.977 20.9941C186.159 20.9941 186.33 21.0428 186.491 21.1401C186.656 21.2332 186.787 21.3602 186.884 21.521C186.982 21.6818 187.03 21.8574 187.03 22.0479C187.03 22.2383 186.982 22.416 186.884 22.5811C186.787 22.7419 186.656 22.8709 186.491 22.9683C186.33 23.0656 186.159 23.1143 185.977 23.1143Z" fill="black"/>
<defs>
<filter id="filter0_d_1159_6442" x="0" y="0" width="229" height="58" filterUnits="userSpaceOnUse" color-interpolation-filters="sRGB">
<feFlood flood-opacity="0" result="BackgroundImageFix"/>
<feColorMatrix in="SourceAlpha" type="matrix" values="0 0 0 0 0 0 0 0 0 0 0 0 0 0 0 0 0 0 127 0" result="hardAlpha"/>
<feOffset dy="4"/>
<feGaussianBlur stdDeviation="4"/>
<feComposite in2="hardAlpha" operator="out"/>
<feColorMatrix type="matrix" values="0 0 0 0 0.962307 0 0 0 0 0.745318 0 0 0 0 0.614146 0 0 0 0.3 0"/>
<feBlend mode="normal" in2="BackgroundImageFix" result="effect1_dropShadow_1159_6442"/>
<feBlend mode="normal" in="SourceGraphic" in2="effect1_dropShadow_1159_6442" result="shape"/>
</filter>
</defs>
</svg>
