<svg width="20" height="20" viewBox="0 0 20 20" fill="none" xmlns="http://www.w3.org/2000/svg">
<mask id="path-1-outside-1_887_5728" maskUnits="userSpaceOnUse" x="0" y="0" width="20" height="20" fill="black">
<rect fill="white" width="20" height="20"/>
<path d="M18.365 11.8C18.4487 11.7999 18.5315 11.8163 18.6088 11.8484C18.686 11.8805 18.7562 11.9275 18.8152 11.9868C18.8742 12.0462 18.9208 12.1166 18.9525 12.194C18.9841 12.2715 19.0001 12.3544 18.9995 12.4381V15.3217C19.0001 15.405 18.9842 15.4876 18.9529 15.5647C18.9215 15.6419 18.8753 15.7121 18.8168 15.7714C18.7583 15.8306 18.6886 15.8778 18.6119 15.9101C18.5351 15.9424 18.4528 15.9593 18.3695 15.9598C18.2862 15.9593 18.2038 15.9424 18.1271 15.9101C18.0503 15.8778 17.9807 15.8306 17.9222 15.7714C17.8637 15.7121 17.8174 15.6419 17.7861 15.5647C17.7548 15.4876 17.7389 15.405 17.7395 15.3217V14.3092C16.1007 17.0596 13.0588 19 9.78105 19C5.81217 19 2.48587 16.5511 1.04321 12.7765C0.982641 12.6192 0.986458 12.4444 1.05384 12.29C1.12122 12.1355 1.24673 12.0138 1.4032 11.9512C1.72719 11.8243 2.09258 11.9872 2.21858 12.3157C3.47854 15.6115 6.34766 17.7247 9.78105 17.7247C12.8149 17.7247 15.6489 15.7609 16.9691 13.0861L15.6453 13.0951C15.562 13.0952 15.4795 13.0789 15.4025 13.0471C15.3256 13.0153 15.2556 12.9687 15.1967 12.9098C15.1378 12.851 15.091 12.7811 15.0591 12.7042C15.0272 12.6272 15.0108 12.5448 15.0108 12.4615C15.0086 12.2934 15.0733 12.1313 15.1906 12.0108C15.3078 11.8903 15.4682 11.8213 15.6363 11.8189L18.365 11.8ZM10.2202 1C14.1873 1 17.5145 3.4489 18.9572 7.2235C19.0177 7.38076 19.0139 7.55556 18.9466 7.71003C18.8792 7.8645 18.7537 7.98621 18.5972 8.0488C18.5198 8.07899 18.4371 8.0935 18.3541 8.09148C18.271 8.08947 18.1891 8.07097 18.1133 8.03705C18.0374 8.00314 17.9691 7.95449 17.9122 7.89394C17.8552 7.83338 17.8109 7.76212 17.7818 7.6843C16.5218 4.3885 13.6527 2.2753 10.2193 2.2753C7.18553 2.2753 4.35152 4.2391 3.03126 6.9139L4.35512 6.9049C4.43839 6.90478 4.52088 6.92108 4.59785 6.95287C4.67483 6.98466 4.74478 7.03131 4.80371 7.09016C4.86264 7.14901 4.90939 7.21889 4.94128 7.29582C4.97318 7.37275 4.9896 7.45522 4.9896 7.5385C4.99176 7.70663 4.9271 7.86874 4.80982 7.98923C4.69254 8.10972 4.53224 8.17873 4.36411 8.1811L1.6345 8.2C1.55084 8.20012 1.46798 8.18367 1.39072 8.1516C1.31345 8.11953 1.24329 8.07248 1.18431 8.01315C1.12532 7.95383 1.07866 7.88341 1.04703 7.80596C1.0154 7.72851 0.999422 7.64556 1.00002 7.5619V4.6783C1.00002 4.3255 1.28171 4.0402 1.63 4.0402C1.97739 4.0402 2.25998 4.3255 2.25998 4.6783V5.6908C3.89883 2.9404 6.94074 1 10.2184 1"/>
</mask>
<path d="M18.365 11.8C18.4487 11.7999 18.5315 11.8163 18.6088 11.8484C18.686 11.8805 18.7562 11.9275 18.8152 11.9868C18.8742 12.0462 18.9208 12.1166 18.9525 12.194C18.9841 12.2715 19.0001 12.3544 18.9995 12.4381V15.3217C19.0001 15.405 18.9842 15.4876 18.9529 15.5647C18.9215 15.6419 18.8753 15.7121 18.8168 15.7714C18.7583 15.8306 18.6886 15.8778 18.6119 15.9101C18.5351 15.9424 18.4528 15.9593 18.3695 15.9598C18.2862 15.9593 18.2038 15.9424 18.1271 15.9101C18.0503 15.8778 17.9807 15.8306 17.9222 15.7714C17.8637 15.7121 17.8174 15.6419 17.7861 15.5647C17.7548 15.4876 17.7389 15.405 17.7395 15.3217V14.3092C16.1007 17.0596 13.0588 19 9.78105 19C5.81217 19 2.48587 16.5511 1.04321 12.7765C0.982641 12.6192 0.986458 12.4444 1.05384 12.29C1.12122 12.1355 1.24673 12.0138 1.4032 11.9512C1.72719 11.8243 2.09258 11.9872 2.21858 12.3157C3.47854 15.6115 6.34766 17.7247 9.78105 17.7247C12.8149 17.7247 15.6489 15.7609 16.9691 13.0861L15.6453 13.0951C15.562 13.0952 15.4795 13.0789 15.4025 13.0471C15.3256 13.0153 15.2556 12.9687 15.1967 12.9098C15.1378 12.851 15.091 12.7811 15.0591 12.7042C15.0272 12.6272 15.0108 12.5448 15.0108 12.4615C15.0086 12.2934 15.0733 12.1313 15.1906 12.0108C15.3078 11.8903 15.4682 11.8213 15.6363 11.8189L18.365 11.8ZM10.2202 1C14.1873 1 17.5145 3.4489 18.9572 7.2235C19.0177 7.38076 19.0139 7.55556 18.9466 7.71003C18.8792 7.8645 18.7537 7.98621 18.5972 8.0488C18.5198 8.07899 18.4371 8.0935 18.3541 8.09148C18.271 8.08947 18.1891 8.07097 18.1133 8.03705C18.0374 8.00314 17.9691 7.95449 17.9122 7.89394C17.8552 7.83338 17.8109 7.76212 17.7818 7.6843C16.5218 4.3885 13.6527 2.2753 10.2193 2.2753C7.18553 2.2753 4.35152 4.2391 3.03126 6.9139L4.35512 6.9049C4.43839 6.90478 4.52088 6.92108 4.59785 6.95287C4.67483 6.98466 4.74478 7.03131 4.80371 7.09016C4.86264 7.14901 4.90939 7.21889 4.94128 7.29582C4.97318 7.37275 4.9896 7.45522 4.9896 7.5385C4.99176 7.70663 4.9271 7.86874 4.80982 7.98923C4.69254 8.10972 4.53224 8.17873 4.36411 8.1811L1.6345 8.2C1.55084 8.20012 1.46798 8.18367 1.39072 8.1516C1.31345 8.11953 1.24329 8.07248 1.18431 8.01315C1.12532 7.95383 1.07866 7.88341 1.04703 7.80596C1.0154 7.72851 0.999422 7.64556 1.00002 7.5619V4.6783C1.00002 4.3255 1.28171 4.0402 1.63 4.0402C1.97739 4.0402 2.25998 4.3255 2.25998 4.6783V5.6908C3.89883 2.9404 6.94074 1 10.2184 1" fill="#109594"/>
<path d="M18.365 11.8L18.3643 11.3L18.3615 11.3L18.365 11.8ZM18.9995 12.4381L18.4995 12.4345V12.4381H18.9995ZM18.9995 15.3217H18.4995L18.4995 15.3253L18.9995 15.3217ZM18.3695 15.9598L18.3667 16.4598L18.3723 16.4598L18.3695 15.9598ZM17.7395 15.3217L18.2395 15.3253V15.3217H17.7395ZM17.7395 14.3092H18.2395V12.4933L17.31 14.0533L17.7395 14.3092ZM1.04321 12.7765L1.51027 12.598L1.5098 12.5968L1.04321 12.7765ZM1.4032 11.9512L1.22085 11.4856L1.21751 11.487L1.4032 11.9512ZM2.21858 12.3157L2.68561 12.1372L2.68542 12.1366L2.21858 12.3157ZM16.9691 13.0861L17.4175 13.3074L17.7762 12.5806L16.9657 12.5861L16.9691 13.0861ZM15.6453 13.0951L15.646 13.5951L15.6487 13.5951L15.6453 13.0951ZM15.0108 12.4615L15.5108 12.4615L15.5108 12.4551L15.0108 12.4615ZM15.6363 11.8189L15.6328 11.3189L15.6292 11.3189L15.6363 11.8189ZM18.9572 7.2235L18.4901 7.40201L18.4906 7.40321L18.9572 7.2235ZM18.5972 8.0488L18.7789 8.51465L18.7829 8.51304L18.5972 8.0488ZM17.7818 7.6843L18.2501 7.509L18.2488 7.50576L17.7818 7.6843ZM3.03126 6.9139L2.5829 6.69259L2.22415 7.4194L3.03465 7.41389L3.03126 6.9139ZM4.35512 6.9049L4.3544 6.40489L4.35172 6.40491L4.35512 6.9049ZM4.9896 7.5385L4.48955 7.5385L4.48964 7.54493L4.9896 7.5385ZM4.36411 8.1811L4.36758 8.6811L4.37117 8.68105L4.36411 8.1811ZM1.6345 8.2L1.63522 8.70001L1.63796 8.69999L1.6345 8.2ZM1.00002 7.5619L1.50002 7.56545V7.5619H1.00002ZM2.25998 5.6908H1.75998V7.50672L2.68951 5.94674L2.25998 5.6908ZM18.3657 12.3C18.3833 12.3 18.4008 12.3034 18.4171 12.3102L18.8004 11.3866C18.6622 11.3292 18.514 11.2998 18.3643 11.3L18.3657 12.3ZM18.4171 12.3102C18.4334 12.317 18.4482 12.3269 18.4606 12.3394L19.1697 11.6343C19.0642 11.5282 18.9387 11.444 18.8004 11.3866L18.4171 12.3102ZM18.4606 12.3394C18.4731 12.3519 18.4829 12.3667 18.4896 12.3831L19.4153 12.005C19.3588 11.8664 19.2753 11.7404 19.1697 11.6343L18.4606 12.3394ZM18.4896 12.3831C18.4962 12.3994 18.4996 12.4169 18.4995 12.4345L19.4995 12.4417C19.5005 12.292 19.4719 12.1436 19.4153 12.005L18.4896 12.3831ZM18.4995 12.4381V15.3217H19.4995V12.4381H18.4995ZM18.4995 15.3253C18.4996 15.3428 18.4963 15.3602 18.4897 15.3765L19.4161 15.7529C19.4722 15.6149 19.5005 15.4671 19.4995 15.3181L18.4995 15.3253ZM18.4897 15.3765C18.4831 15.3928 18.4733 15.4076 18.461 15.4201L19.1726 16.1226C19.2773 16.0166 19.36 15.891 19.4161 15.7529L18.4897 15.3765ZM18.461 15.4201C18.4486 15.4326 18.4339 15.4425 18.4178 15.4493L18.806 16.3709C18.9433 16.313 19.0679 16.2287 19.1726 16.1226L18.461 15.4201ZM18.4178 15.4493C18.4016 15.4561 18.3842 15.4597 18.3667 15.4598L18.3723 16.4598C18.5213 16.4589 18.6687 16.4287 18.806 16.3709L18.4178 15.4493ZM18.3723 15.4598C18.3548 15.4597 18.3374 15.4561 18.3212 15.4493L17.933 16.3709C18.0703 16.4287 18.2177 16.4589 18.3667 16.4598L18.3723 15.4598ZM18.3212 15.4493C18.305 15.4425 18.2904 15.4326 18.278 15.4201L17.5664 16.1226C17.6711 16.2287 17.7957 16.313 17.933 16.3709L18.3212 15.4493ZM18.278 15.4201C18.2657 15.4076 18.2559 15.3928 18.2493 15.3765L17.3229 15.7529C17.379 15.891 17.4617 16.0166 17.5664 16.1226L18.278 15.4201ZM18.2493 15.3765C18.2427 15.3602 18.2394 15.3428 18.2395 15.3253L17.2395 15.3181C17.2385 15.4671 17.2668 15.6149 17.3229 15.7529L18.2493 15.3765ZM18.2395 15.3217V14.3092H17.2395V15.3217H18.2395ZM17.31 14.0533C15.751 16.6697 12.8633 18.5 9.78105 18.5V19.5C13.2542 19.5 16.4504 17.4495 18.169 14.5651L17.31 14.0533ZM9.78105 18.5C6.03571 18.5 2.88491 16.1946 1.51026 12.598L0.576165 12.955C2.08684 16.9076 5.58863 19.5 9.78105 19.5V18.5ZM1.5098 12.5968C1.49649 12.5622 1.49733 12.5238 1.51214 12.4899L0.595538 12.0901C0.475586 12.3651 0.468792 12.6762 0.576628 12.9562L1.5098 12.5968ZM1.51214 12.4899C1.52694 12.4559 1.55452 12.4292 1.58889 12.4154L1.21751 11.487C0.938947 11.5984 0.715491 11.8151 0.595538 12.0901L1.51214 12.4899ZM1.58555 12.4168C1.64722 12.3926 1.72362 12.4214 1.75174 12.4948L2.68542 12.1366C2.46155 11.553 1.80717 11.256 1.22085 11.4856L1.58555 12.4168ZM1.75154 12.4942C3.07908 15.9668 6.12294 18.2247 9.78105 18.2247V17.2247C6.57237 17.2247 3.878 15.2562 2.68561 12.1372L1.75154 12.4942ZM9.78105 18.2247C13.0254 18.2247 16.0224 16.1339 17.4175 13.3074L16.5208 12.8648C15.2754 15.3879 12.6043 17.2247 9.78105 17.2247V18.2247ZM16.9657 12.5861L15.6419 12.5951L15.6487 13.5951L16.9725 13.5861L16.9657 12.5861ZM15.6446 12.5951C15.627 12.5951 15.6096 12.5917 15.5934 12.585L15.2117 13.5093C15.3494 13.5661 15.497 13.5953 15.646 13.5951L15.6446 12.5951ZM15.5934 12.585C15.5772 12.5783 15.5624 12.5684 15.55 12.556L14.8434 13.2636C14.9488 13.3689 15.074 13.4524 15.2117 13.5093L15.5934 12.585ZM15.55 12.556C15.5376 12.5436 15.5277 12.5289 15.521 12.5127L14.5972 12.8957C14.6543 13.0333 14.7379 13.1584 14.8434 13.2636L15.55 12.556ZM15.521 12.5127C15.5143 12.4965 15.5108 12.4791 15.5108 12.4615L14.5108 12.4615C14.5108 12.6105 14.5402 12.758 14.5972 12.8957L15.521 12.5127ZM15.5108 12.4551C15.5103 12.4194 15.524 12.3851 15.5489 12.3595L14.8323 11.662C14.6226 11.8775 14.507 12.1673 14.5108 12.4679L15.5108 12.4551ZM15.5489 12.3595C15.5737 12.334 15.6077 12.3194 15.6433 12.3188L15.6292 11.3189C15.3286 11.3232 15.042 11.4466 14.8323 11.662L15.5489 12.3595ZM15.6397 12.3189L18.3685 12.3L18.3615 11.3L15.6328 11.3189L15.6397 12.3189ZM10.2202 1.5C13.9638 1.5 17.1155 3.80536 18.4901 7.40201L19.4242 7.04499C17.9136 3.09244 14.4109 0.5 10.2202 0.5V1.5ZM18.4906 7.40321C18.5039 7.43777 18.5031 7.47618 18.4883 7.51013L19.4049 7.90994C19.5248 7.63494 19.5316 7.32376 19.4238 7.04379L18.4906 7.40321ZM18.4883 7.51013C18.4734 7.54407 18.4459 7.57081 18.4115 7.58456L18.7829 8.51304C19.0614 8.40162 19.2849 8.18494 19.4049 7.90994L18.4883 7.51013ZM18.4155 7.58297C18.3998 7.5891 18.383 7.59204 18.3662 7.59163L18.3419 8.59134C18.4912 8.59496 18.6397 8.56889 18.7789 8.51463L18.4155 7.58297ZM18.3662 7.59163C18.3493 7.59122 18.3327 7.58747 18.3173 7.58059L17.9092 8.49352C18.0456 8.55446 18.1926 8.58771 18.3419 8.59134L18.3662 7.59163ZM18.3173 7.58059C18.3019 7.57371 18.2881 7.56384 18.2765 7.55155L17.5478 8.23633C17.65 8.34516 17.7729 8.43258 17.9092 8.49352L18.3173 7.58059ZM18.2765 7.55155C18.265 7.53926 18.256 7.5248 18.2501 7.50901L17.3135 7.85959C17.3659 7.99945 17.4455 8.1275 17.5478 8.23633L18.2765 7.55155ZM18.2488 7.50576C16.9213 4.0332 13.8775 1.7753 10.2193 1.7753V2.7753C13.428 2.7753 16.1224 4.7438 17.3148 7.86284L18.2488 7.50576ZM10.2193 1.7753C6.97495 1.7753 3.97803 3.8661 2.5829 6.69259L3.47961 7.13521C4.725 4.6121 7.39611 2.7753 10.2193 2.7753V1.7753ZM3.03465 7.41389L4.35851 7.40489L4.35172 6.40491L3.02786 6.41391L3.03465 7.41389ZM4.35583 7.4049C4.37338 7.40487 4.39077 7.40831 4.407 7.41501L4.78871 6.49073C4.65099 6.43386 4.50341 6.40469 4.3544 6.4049L4.35583 7.4049ZM4.407 7.41501C4.42323 7.42171 4.43797 7.43155 4.4504 7.44396L5.15701 6.73636C5.05158 6.63107 4.92643 6.54761 4.78871 6.49073L4.407 7.41501ZM4.4504 7.44396C4.46282 7.45637 4.47268 7.4711 4.47941 7.48732L5.40316 7.10432C5.34609 6.96668 5.26245 6.84165 5.15701 6.73636L4.4504 7.44396ZM4.47941 7.48732C4.48613 7.50355 4.4896 7.52094 4.4896 7.5385L5.4896 7.5385C5.4896 7.3895 5.46022 7.24196 5.40316 7.10432L4.47941 7.48732ZM4.48964 7.54493C4.4901 7.58058 4.47639 7.61494 4.45153 7.64048L5.16812 8.33798C5.37781 8.12254 5.49342 7.83268 5.48955 7.53207L4.48964 7.54493ZM4.45153 7.64048C4.42667 7.66602 4.39269 7.68065 4.35706 7.68115L4.37117 8.68105C4.67178 8.67681 4.95842 8.55342 5.16812 8.33798L4.45153 7.64048ZM4.36065 7.68111L1.63104 7.70001L1.63796 8.69999L4.36758 8.68109L4.36065 7.68111ZM1.63377 7.7C1.61614 7.70003 1.59867 7.69656 1.58238 7.6898L1.19905 8.61341C1.3373 8.67079 1.48554 8.70022 1.63522 8.7L1.63377 7.7ZM1.58238 7.6898C1.56609 7.68304 1.5513 7.67312 1.53886 7.66061L0.829749 8.3657C0.935287 8.47184 1.0608 8.55603 1.19905 8.61341L1.58238 7.6898ZM1.53886 7.66061C1.52643 7.6481 1.51659 7.63325 1.50992 7.61692L0.584145 7.995C0.640737 8.13357 0.72421 8.25956 0.829749 8.3657L1.53886 7.66061ZM1.50992 7.61692C1.50325 7.60059 1.49988 7.58309 1.5 7.56545L0.500029 7.55835C0.498965 7.70802 0.527554 7.85643 0.584145 7.995L1.50992 7.61692ZM1.50002 7.5619V4.6783H0.500016V7.5619H1.50002ZM1.50002 4.6783C1.50002 4.5956 1.56386 4.5402 1.63 4.5402V3.5402C0.999559 3.5402 0.500016 4.0554 0.500016 4.6783H1.50002ZM1.63 4.5402C1.6957 4.5402 1.75998 4.59607 1.75998 4.6783H2.75998C2.75998 4.05493 2.25907 3.5402 1.63 3.5402V4.5402ZM1.75998 4.6783V5.6908H2.75998V4.6783H1.75998ZM2.68951 5.94674C4.24852 3.33032 7.13623 1.5 10.2184 1.5V0.5C6.74525 0.5 3.54914 2.55048 1.83045 5.43486L2.68951 5.94674Z" fill="#0E9494" mask="url(#path-1-outside-1_887_5728)"/>
</svg>
