<svg width="30" height="30" viewBox="0 0 30 30" fill="none" xmlns="http://www.w3.org/2000/svg">
<path d="M9.44217 29.6614H1.71428C1.16199 29.6614 0.714279 29.2137 0.714279 28.6614V15.4818C0.714279 15.227 0.811493 14.9819 0.986079 14.7964L14.4532 0.48758C14.848 0.0680659 15.5148 0.0680662 15.9096 0.48758L29.1273 14.5314C29.3019 14.7169 29.3991 14.962 29.3991 15.2167V28.6614C29.3991 29.2137 28.9514 29.6614 28.3991 29.6614H20.4218C19.8695 29.6614 19.4218 29.2137 19.4218 28.6614V21.1807C19.4218 21.1807 19.4218 17.2054 15.1814 17.2054C10.1927 17.2054 10.4422 21.1807 10.4422 21.1807V28.6614C10.4422 29.2137 9.99446 29.6614 9.44217 29.6614Z" fill="#B7B7B7"/>
</svg>
