<svg width="313" height="50" viewBox="0 0 313 50" fill="none" xmlns="http://www.w3.org/2000/svg">
<rect width="313" height="50" rx="25" fill="#FEE500"/>
<path d="M85.5004 17.3999C80.8703 17.3999 77.1172 20.3272 77.1172 23.9403C77.1172 26.2912 78.7065 28.3516 81.0935 29.5044C80.9178 30.1496 80.4588 31.8444 80.367 32.2068C80.253 32.6567 80.5332 32.6505 80.7184 32.5302C80.8624 32.4349 83.0152 30.99 83.9444 30.3667C84.4494 30.4401 84.9686 30.4792 85.5004 30.4792C90.1305 30.4792 93.8837 27.5518 93.8837 23.9403C93.8837 20.3288 90.1305 17.3999 85.5004 17.3999Z" fill="#371D1E"/>
<path d="M101.88 29V20.12H103.656V23.972H103.68L106.632 20.12H108.588L105.864 23.612L109.056 29H107.124L104.82 25.016L103.656 26.504V29H101.88ZM111.367 29.168C110.167 29.168 109.387 28.328 109.387 27.176C109.387 25.748 110.551 24.992 113.251 24.692C113.215 24.032 112.939 23.54 112.111 23.54C111.487 23.54 110.875 23.804 110.263 24.176L109.627 23C110.419 22.52 111.367 22.124 112.435 22.124C114.139 22.124 115.015 23.132 115.015 25.088V29H113.575L113.443 28.292H113.395C112.807 28.796 112.135 29.168 111.367 29.168ZM111.943 27.788C112.447 27.788 112.819 27.56 113.251 27.14V25.784C111.607 25.988 111.067 26.432 111.067 27.044C111.067 27.56 111.427 27.788 111.943 27.788ZM116.573 29V19.436H118.301V25.172H118.361L120.641 22.292H122.585L120.281 25.052L122.789 29H120.881L119.249 26.216L118.301 27.308V29H116.573ZM125.02 29.168C123.82 29.168 123.04 28.328 123.04 27.176C123.04 25.748 124.204 24.992 126.904 24.692C126.868 24.032 126.592 23.54 125.764 23.54C125.14 23.54 124.528 23.804 123.916 24.176L123.28 23C124.072 22.52 125.02 22.124 126.088 22.124C127.792 22.124 128.668 23.132 128.668 25.088V29H127.228L127.096 28.292H127.048C126.46 28.796 125.788 29.168 125.02 29.168ZM125.596 27.788C126.1 27.788 126.472 27.56 126.904 27.14V25.784C125.26 25.988 124.72 26.432 124.72 27.044C124.72 27.56 125.08 27.788 125.596 27.788ZM133.034 29.168C131.342 29.168 129.806 27.872 129.806 25.652C129.806 23.42 131.342 22.124 133.034 22.124C134.714 22.124 136.25 23.42 136.25 25.652C136.25 27.872 134.714 29.168 133.034 29.168ZM133.034 27.74C133.946 27.74 134.45 26.912 134.45 25.652C134.45 24.38 133.946 23.564 133.034 23.564C132.11 23.564 131.606 24.38 131.606 25.652C131.606 26.912 132.11 27.74 133.034 27.74ZM137.041 27.548H147.097V28.844H137.041V27.548ZM141.253 25.448H142.849V28.076H141.253V25.448ZM138.169 19.676H145.969V23.372H139.777V25.244H138.193V22.124H144.385V20.936H138.169V19.676ZM138.193 24.608H146.221V25.892H138.193V24.608ZM150.799 29V27.572H152.719V21.956H151.099V20.864C151.999 20.696 152.599 20.468 153.175 20.12H154.483V27.572H156.151V29H150.799ZM157.157 27.512H167.213V28.808H157.157V27.512ZM161.381 25.376H162.977V28.184H161.381V25.376ZM161.369 21.272H162.785V21.512C162.785 23.636 161.093 25.352 158.045 25.748L157.469 24.488C160.169 24.164 161.369 22.784 161.369 21.512V21.272ZM161.585 21.272H162.989V21.512C162.989 22.784 164.189 24.164 166.889 24.488L166.313 25.748C163.265 25.352 161.585 23.636 161.585 21.512V21.272ZM158.009 20.456H166.349V21.74H158.009V20.456ZM161.381 19.1H162.977V20.984H161.381V19.1ZM168.268 19.868H173.56V25.232H168.268V19.868ZM171.988 21.128H169.84V23.972H171.988V21.128ZM175.096 18.956H176.692V27.056H175.096V18.956ZM176.236 22.16H178.168V23.468H176.236V22.16ZM169.528 28.604H177.088V29.876H169.528V28.604ZM169.528 26.264H171.124V29.24H169.528V26.264ZM183.183 23.048H185.007V24.332H183.183V23.048ZM186.771 18.956H188.295V30.068H186.771V18.956ZM184.503 19.124H186.003V29.564H184.503V19.124ZM181.239 19.736C182.715 19.736 183.663 21.26 183.663 23.768C183.663 26.288 182.715 27.812 181.239 27.812C179.775 27.812 178.839 26.288 178.839 23.768C178.839 21.26 179.775 19.736 181.239 19.736ZM181.239 21.236C180.639 21.236 180.291 22.076 180.291 23.768C180.291 25.472 180.639 26.3 181.239 26.3C181.863 26.3 182.211 25.472 182.211 23.768C182.211 22.076 181.863 21.236 181.239 21.236ZM194.733 19.808H196.029V21.428C196.029 24.284 195.045 26.864 192.837 27.884L191.889 26.564C193.821 25.724 194.733 23.588 194.733 21.428V19.808ZM195.045 19.808H196.341V21.428C196.341 23.48 197.217 25.52 199.113 26.336L198.177 27.62C196.029 26.636 195.045 24.164 195.045 21.428V19.808ZM199.641 18.944H201.249V30.092H199.641V18.944ZM205.292 20.096H206.6V20.792C206.6 22.892 205.604 24.776 203.48 25.46L202.652 24.224C204.512 23.624 205.292 22.184 205.292 20.792V20.096ZM205.616 20.096H206.912V20.792C206.912 22.1 207.668 23.456 209.468 24.032L208.652 25.268C206.576 24.596 205.616 22.784 205.616 20.792V20.096ZM203.084 19.604H209.084V20.876H203.084V19.604ZM209.972 18.956H211.568V25.652H209.972V18.956ZM211.124 21.644H213.044V22.952H211.124V21.644ZM204.152 26.132H211.568V30.068H209.972V27.416H204.152V26.132ZM220.747 18.956H222.331V30.068H220.747V18.956ZM221.971 23.288H223.939V24.62H221.971V23.288ZM213.571 20.6H220.039V21.872H213.571V20.6ZM216.823 22.496C218.443 22.496 219.643 23.6 219.643 25.148C219.643 26.696 218.443 27.8 216.823 27.8C215.203 27.8 214.003 26.696 214.003 25.148C214.003 23.6 215.203 22.496 216.823 22.496ZM216.823 23.792C216.067 23.792 215.527 24.296 215.527 25.148C215.527 26 216.067 26.504 216.823 26.504C217.579 26.504 218.119 26 218.119 25.148C218.119 24.296 217.579 23.792 216.823 23.792ZM216.019 19.136H217.615V21.08H216.019V19.136ZM232.074 18.956H233.682V30.068H232.074V18.956ZM228.798 20.108H230.382C230.382 23.504 229.23 26.288 225.282 28.196L224.454 26.924C227.646 25.388 228.798 23.372 228.798 20.396V20.108ZM225.042 20.108H229.554V21.368H225.042V20.108Z" fill="#371D1E"/>
</svg>
