<svg width="313" height="51" viewBox="0 0 313 51" fill="none" xmlns="http://www.w3.org/2000/svg">
<rect y="0.136719" width="313" height="50" rx="25" fill="#FEE500"/>
<path d="M85.5004 17.5366C80.8703 17.5366 77.1172 20.464 77.1172 24.077C77.1172 26.428 78.7065 28.4883 81.0935 29.6412C80.9178 30.2863 80.4588 31.9811 80.367 32.3435C80.253 32.7934 80.5332 32.7872 80.7184 32.6669C80.8624 32.5716 83.0152 31.1267 83.9444 30.5034C84.4494 30.5768 84.9686 30.6159 85.5004 30.6159C90.1305 30.6159 93.8837 27.6886 93.8837 24.077C93.8837 20.4655 90.1305 17.5366 85.5004 17.5366Z" fill="#371D1E"/>
<path d="M101.88 29.1367V20.2447H103.656V24.1087H103.692L106.632 20.2447H108.588L105.876 23.7487L109.068 29.1367H107.124L104.82 25.1407L103.656 26.6407V29.1367H101.88ZM111.367 29.3047C110.975 29.3047 110.627 29.2207 110.323 29.0527C110.027 28.8767 109.795 28.6367 109.627 28.3327C109.467 28.0287 109.387 27.6847 109.387 27.3007C109.387 26.5887 109.695 26.0367 110.311 25.6447C110.927 25.2447 111.907 24.9727 113.251 24.8287C113.243 24.6047 113.203 24.4087 113.131 24.2407C113.059 24.0647 112.939 23.9247 112.771 23.8207C112.611 23.7167 112.391 23.6647 112.111 23.6647C111.799 23.6647 111.491 23.7247 111.187 23.8447C110.883 23.9647 110.575 24.1207 110.263 24.3127L109.639 23.1367C109.903 22.9687 110.183 22.8207 110.479 22.6927C110.775 22.5647 111.087 22.4607 111.415 22.3807C111.743 22.2927 112.083 22.2487 112.435 22.2487C113.003 22.2487 113.479 22.3607 113.863 22.5847C114.247 22.8087 114.535 23.1407 114.727 23.5807C114.919 24.0207 115.015 24.5647 115.015 25.2127V29.1367H113.575L113.455 28.4167H113.395C113.107 28.6727 112.795 28.8847 112.459 29.0527C112.123 29.2207 111.759 29.3047 111.367 29.3047ZM111.955 27.9247C112.203 27.9247 112.427 27.8687 112.627 27.7567C112.835 27.6367 113.043 27.4727 113.251 27.2647V25.9207C112.707 25.9847 112.275 26.0767 111.955 26.1967C111.635 26.3167 111.407 26.4607 111.271 26.6287C111.135 26.7887 111.067 26.9687 111.067 27.1687C111.067 27.4327 111.147 27.6247 111.307 27.7447C111.475 27.8647 111.691 27.9247 111.955 27.9247ZM116.573 29.1367V19.5607H118.313V25.2967H118.361L120.653 22.4167H122.585L120.281 25.1887L122.801 29.1367H120.881L119.249 26.3407L118.313 27.4327V29.1367H116.573ZM125.02 29.3047C124.628 29.3047 124.28 29.2207 123.976 29.0527C123.68 28.8767 123.448 28.6367 123.28 28.3327C123.12 28.0287 123.04 27.6847 123.04 27.3007C123.04 26.5887 123.348 26.0367 123.964 25.6447C124.58 25.2447 125.56 24.9727 126.904 24.8287C126.896 24.6047 126.856 24.4087 126.784 24.2407C126.712 24.0647 126.592 23.9247 126.424 23.8207C126.264 23.7167 126.044 23.6647 125.764 23.6647C125.452 23.6647 125.144 23.7247 124.84 23.8447C124.536 23.9647 124.228 24.1207 123.916 24.3127L123.292 23.1367C123.556 22.9687 123.836 22.8207 124.132 22.6927C124.428 22.5647 124.74 22.4607 125.068 22.3807C125.396 22.2927 125.736 22.2487 126.088 22.2487C126.656 22.2487 127.132 22.3607 127.516 22.5847C127.9 22.8087 128.188 23.1407 128.38 23.5807C128.572 24.0207 128.668 24.5647 128.668 25.2127V29.1367H127.228L127.108 28.4167H127.048C126.76 28.6727 126.448 28.8847 126.112 29.0527C125.776 29.2207 125.412 29.3047 125.02 29.3047ZM125.608 27.9247C125.856 27.9247 126.08 27.8687 126.28 27.7567C126.488 27.6367 126.696 27.4727 126.904 27.2647V25.9207C126.36 25.9847 125.928 26.0767 125.608 26.1967C125.288 26.3167 125.06 26.4607 124.924 26.6287C124.788 26.7887 124.72 26.9687 124.72 27.1687C124.72 27.4327 124.8 27.6247 124.96 27.7447C125.128 27.8647 125.344 27.9247 125.608 27.9247ZM133.034 29.3047C132.474 29.3047 131.946 29.1647 131.45 28.8847C130.962 28.6047 130.566 28.2047 130.262 27.6847C129.958 27.1567 129.806 26.5207 129.806 25.7767C129.806 25.0327 129.958 24.4007 130.262 23.8807C130.566 23.3527 130.962 22.9487 131.45 22.6687C131.946 22.3887 132.474 22.2487 133.034 22.2487C133.458 22.2487 133.862 22.3287 134.246 22.4887C134.63 22.6487 134.974 22.8807 135.278 23.1847C135.582 23.4807 135.822 23.8487 135.998 24.2887C136.174 24.7207 136.262 25.2167 136.262 25.7767C136.262 26.5207 136.11 27.1567 135.806 27.6847C135.502 28.2047 135.102 28.6047 134.606 28.8847C134.118 29.1647 133.594 29.3047 133.034 29.3047ZM133.034 27.8647C133.338 27.8647 133.594 27.7807 133.802 27.6127C134.018 27.4367 134.178 27.1927 134.282 26.8807C134.394 26.5687 134.45 26.2007 134.45 25.7767C134.45 25.3527 134.394 24.9847 134.282 24.6727C134.178 24.3607 134.018 24.1207 133.802 23.9527C133.594 23.7767 133.338 23.6887 133.034 23.6887C132.73 23.6887 132.47 23.7767 132.254 23.9527C132.046 24.1207 131.886 24.3607 131.774 24.6727C131.67 24.9847 131.618 25.3527 131.618 25.7767C131.618 26.2007 131.67 26.5687 131.774 26.8807C131.886 27.1927 132.046 27.4367 132.254 27.6127C132.47 27.7807 132.73 27.8647 133.034 27.8647ZM137.041 27.6847H147.109V28.9807H137.041V27.6847ZM141.265 25.5727H142.849V28.2007H141.265V25.5727ZM138.181 19.8007H145.969V23.5087H139.777V25.3687H138.193V22.2607H144.385V21.0727H138.181V19.8007ZM138.193 24.7447H146.221V26.0167H138.193V24.7447ZM150.811 29.1367V27.6967H152.731V22.0927H151.111V20.9887C151.559 20.9087 151.943 20.8127 152.263 20.7007C152.591 20.5807 152.895 20.4287 153.175 20.2447H154.483V27.6967H156.151V29.1367H150.811ZM157.157 27.6487H167.225V28.9447H157.157V27.6487ZM161.393 25.5007H162.977V28.3087H161.393V25.5007ZM161.381 21.3967H162.785V21.6367C162.785 22.1727 162.681 22.6767 162.473 23.1487C162.265 23.6127 161.957 24.0327 161.549 24.4087C161.149 24.7847 160.657 25.1007 160.073 25.3567C159.489 25.6127 158.813 25.7887 158.045 25.8847L157.469 24.6127C158.149 24.5327 158.733 24.3967 159.221 24.2047C159.717 24.0047 160.121 23.7647 160.433 23.4847C160.753 23.2047 160.989 22.9087 161.141 22.5967C161.301 22.2767 161.381 21.9567 161.381 21.6367V21.3967ZM161.585 21.3967H162.989V21.6367C162.989 21.9567 163.065 22.2767 163.217 22.5967C163.377 22.9087 163.613 23.2047 163.925 23.4847C164.245 23.7647 164.653 24.0047 165.149 24.2047C165.645 24.3967 166.229 24.5327 166.901 24.6127L166.325 25.8847C165.557 25.7887 164.881 25.6127 164.297 25.3567C163.713 25.1007 163.217 24.7847 162.809 24.4087C162.409 24.0327 162.105 23.6127 161.897 23.1487C161.689 22.6767 161.585 22.1727 161.585 21.6367V21.3967ZM158.009 20.5927H166.349V21.8647H158.009V20.5927ZM161.393 19.2367H162.977V21.1087H161.393V19.2367ZM168.268 19.9927H173.572V25.3687H168.268V19.9927ZM172 21.2647H169.84V24.1087H172V21.2647ZM175.096 19.0927H176.692V27.1927H175.096V19.0927ZM176.248 22.2967H178.168V23.6047H176.248V22.2967ZM169.528 28.7287H177.088V30.0127H169.528V28.7287ZM169.528 26.4007H171.136V29.3767H169.528V26.4007ZM183.195 23.1727H185.019V24.4567H183.195V23.1727ZM186.771 19.0807H188.295V30.1927H186.771V19.0807ZM184.515 19.2607H186.003V29.7007H184.515V19.2607ZM181.251 19.8607C181.739 19.8607 182.163 20.0247 182.523 20.3527C182.891 20.6727 183.171 21.1367 183.363 21.7447C183.563 22.3447 183.663 23.0647 183.663 23.9047C183.663 24.7367 183.563 25.4567 183.363 26.0647C183.171 26.6727 182.891 27.1407 182.523 27.4687C182.163 27.7887 181.735 27.9487 181.239 27.9487C180.759 27.9487 180.335 27.7887 179.967 27.4687C179.607 27.1407 179.327 26.6727 179.127 26.0647C178.935 25.4567 178.839 24.7367 178.839 23.9047C178.839 23.0647 178.935 22.3447 179.127 21.7447C179.327 21.1367 179.607 20.6727 179.967 20.3527C180.335 20.0247 180.763 19.8607 181.251 19.8607ZM181.251 21.3727C181.051 21.3727 180.879 21.4647 180.735 21.6487C180.591 21.8327 180.479 22.1127 180.399 22.4887C180.327 22.8567 180.291 23.3287 180.291 23.9047C180.291 24.4647 180.327 24.9327 180.399 25.3087C180.479 25.6847 180.591 25.9687 180.735 26.1607C180.879 26.3447 181.051 26.4367 181.251 26.4367C181.451 26.4367 181.623 26.3447 181.767 26.1607C181.919 25.9687 182.031 25.6847 182.103 25.3087C182.175 24.9327 182.211 24.4647 182.211 23.9047C182.211 23.3287 182.175 22.8567 182.103 22.4887C182.031 22.1127 181.919 21.8327 181.767 21.6487C181.623 21.4647 181.451 21.3727 181.251 21.3727ZM194.733 19.9447H196.041V21.5527C196.041 22.2727 195.977 22.9647 195.849 23.6287C195.721 24.2847 195.525 24.9007 195.261 25.4767C195.005 26.0447 194.673 26.5487 194.265 26.9887C193.865 27.4207 193.389 27.7647 192.837 28.0207L191.889 26.7007C192.377 26.4847 192.797 26.2007 193.149 25.8487C193.509 25.4887 193.805 25.0807 194.037 24.6247C194.269 24.1607 194.441 23.6687 194.553 23.1487C194.673 22.6287 194.733 22.0967 194.733 21.5527V19.9447ZM195.045 19.9447H196.341V21.5527C196.341 22.0727 196.397 22.5807 196.509 23.0767C196.621 23.5727 196.789 24.0407 197.013 24.4807C197.245 24.9207 197.533 25.3127 197.877 25.6567C198.229 25.9927 198.641 26.2607 199.113 26.4607L198.189 27.7567C197.653 27.5087 197.185 27.1767 196.785 26.7607C196.393 26.3447 196.069 25.8647 195.813 25.3207C195.557 24.7687 195.365 24.1767 195.237 23.5447C195.109 22.9047 195.045 22.2407 195.045 21.5527V19.9447ZM199.653 19.0687H201.249V30.2167H199.653V19.0687ZM205.304 20.2207H206.612V20.9167C206.612 21.6207 206.496 22.2847 206.264 22.9087C206.04 23.5327 205.696 24.0807 205.232 24.5527C204.776 25.0167 204.196 25.3647 203.492 25.5967L202.664 24.3607C203.28 24.1527 203.78 23.8687 204.164 23.5087C204.556 23.1487 204.844 22.7447 205.028 22.2967C205.212 21.8407 205.304 21.3807 205.304 20.9167V20.2207ZM205.616 20.2207H206.912V20.9167C206.912 21.3487 207 21.7807 207.176 22.2127C207.352 22.6367 207.628 23.0207 208.004 23.3647C208.388 23.7007 208.876 23.9647 209.468 24.1567L208.664 25.4047C207.968 25.1807 207.396 24.8407 206.948 24.3847C206.5 23.9287 206.164 23.4047 205.94 22.8127C205.724 22.2127 205.616 21.5807 205.616 20.9167V20.2207ZM203.084 19.7407H209.096V21.0127H203.084V19.7407ZM209.972 19.0927H211.568V25.7767H209.972V19.0927ZM211.136 21.7687H213.044V23.0887H211.136V21.7687ZM204.152 26.2687H211.568V30.2047H209.972V27.5407H204.152V26.2687ZM220.747 19.0927H222.343V30.2047H220.747V19.0927ZM221.983 23.4247H223.939V24.7447H221.983V23.4247ZM213.571 20.7247H220.051V21.9967H213.571V20.7247ZM216.835 22.6327C217.371 22.6327 217.851 22.7487 218.275 22.9807C218.699 23.2047 219.031 23.5127 219.271 23.9047C219.519 24.2967 219.643 24.7527 219.643 25.2727C219.643 25.7927 219.519 26.2527 219.271 26.6527C219.031 27.0447 218.699 27.3567 218.275 27.5887C217.859 27.8127 217.379 27.9247 216.835 27.9247C216.299 27.9247 215.815 27.8127 215.383 27.5887C214.959 27.3567 214.623 27.0447 214.375 26.6527C214.135 26.2527 214.015 25.7927 214.015 25.2727C214.015 24.7527 214.135 24.2967 214.375 23.9047C214.623 23.5127 214.959 23.2047 215.383 22.9807C215.815 22.7487 216.299 22.6327 216.835 22.6327ZM216.835 23.9287C216.579 23.9287 216.355 23.9807 216.163 24.0847C215.971 24.1887 215.819 24.3407 215.707 24.5407C215.595 24.7407 215.539 24.9847 215.539 25.2727C215.539 25.5527 215.595 25.7967 215.707 26.0047C215.819 26.2047 215.971 26.3607 216.163 26.4727C216.355 26.5767 216.579 26.6287 216.835 26.6287C217.083 26.6287 217.303 26.5767 217.495 26.4727C217.687 26.3607 217.839 26.2047 217.951 26.0047C218.063 25.7967 218.119 25.5527 218.119 25.2727C218.119 24.9847 218.063 24.7407 217.951 24.5407C217.839 24.3407 217.687 24.1887 217.495 24.0847C217.303 23.9807 217.083 23.9287 216.835 23.9287ZM216.019 19.2727H217.627V21.2167H216.019V19.2727ZM232.086 19.0807H233.682V30.1927H232.086V19.0807ZM228.81 20.2327H230.382C230.382 21.0807 230.298 21.8927 230.13 22.6687C229.97 23.4367 229.698 24.1607 229.314 24.8407C228.938 25.5207 228.418 26.1527 227.754 26.7367C227.098 27.3127 226.278 27.8407 225.294 28.3207L224.454 27.0607C225.526 26.5407 226.378 25.9687 227.01 25.3447C227.65 24.7127 228.11 24.0007 228.39 23.2087C228.67 22.4087 228.81 21.5127 228.81 20.5207V20.2327ZM225.054 20.2327H229.554V21.5047H225.054V20.2327Z" fill="#371D1E"/>
</svg>
