<svg width="18" height="18" viewBox="0 0 18 18" fill="none" xmlns="http://www.w3.org/2000/svg">
<path d="M11.7261 1.77008C12.2206 1.27545 12.8848 0.987408 13.5838 0.964385C14.2829 0.941362 14.9645 1.18508 15.4905 1.6461L15.6228 1.77008L16.272 2.41937C16.7664 2.91384 17.0543 3.57778 17.0773 4.27662C17.1003 4.97545 16.8568 5.6569 16.396 6.18284L16.272 6.31508L5.97531 16.6127C5.82972 16.7583 5.65336 16.8694 5.45919 16.9378L5.31041 16.981L1.22 17.9251C1.07671 17.9582 0.927554 17.9564 0.785074 17.92C0.642594 17.8835 0.510945 17.8134 0.40118 17.7155C0.291414 17.6176 0.206738 17.4948 0.15426 17.3574C0.101783 17.22 0.0830366 17.072 0.0995951 16.9259L0.117962 16.8221L1.06113 12.7308C1.10772 12.5301 1.19873 12.3425 1.32745 12.1816L1.42939 12.0668L11.7261 1.77008ZM11.0768 5.01651L2.82072 13.2726L2.23664 15.8055L4.76949 15.2205L13.0256 6.96437L11.0768 5.01651ZM14.3242 3.06865C14.1661 2.91053 13.9557 2.81554 13.7325 2.80151C13.5093 2.78748 13.2886 2.85536 13.1119 2.99243L13.0256 3.06865L12.3754 3.71794L14.3242 5.66579L14.9735 5.01651C15.1316 4.85837 15.2266 4.64798 15.2406 4.42479C15.2546 4.2016 15.1868 3.98096 15.0497 3.80426L14.9735 3.71794L14.3242 3.06865Z" fill="#B3B3B3"/>
</svg>
