<svg width="31" height="31" viewBox="0 0 31 31" fill="none" xmlns="http://www.w3.org/2000/svg">
<path d="M22.735 0.402344H8.76667C3.7 0.402344 0.75 3.1076 0.75 7.743V23.4426C0.75 28.154 3.7 30.7984 8.76667 30.7984H22.735C27.8833 30.7984 30.75 28.154 30.75 23.4426V7.743C30.75 3.1076 27.8833 0.402344 22.735 0.402344Z" fill="#05697F"/>
<path fill-rule="evenodd" clip-rule="evenodd" d="M9.55477 7.47266V7.48785C8.90827 7.48785 8.38477 8.01979 8.38477 8.6733C8.38477 9.32682 8.90827 9.85875 9.55477 9.85875H14.0383C14.6848 9.85875 15.2098 9.32682 15.2098 8.65658C15.2098 8.00459 14.6848 7.47266 14.0383 7.47266H9.55477ZM21.3148 16.7277H9.55477C8.90827 16.7277 8.38477 16.1958 8.38477 15.5423C8.38477 14.8888 8.90827 14.3553 9.55477 14.3553H21.3148C21.9598 14.3553 22.4848 14.8888 22.4848 15.5423C22.4848 16.1958 21.9598 16.7277 21.3148 16.7277ZM21.315 23.6736H9.555C9.105 23.7344 8.67 23.5064 8.43 23.1265C8.19 22.7313 8.19 22.2298 8.43 21.8499C8.67 21.4547 9.105 21.2419 9.555 21.2875H21.315C21.9135 21.3483 22.365 21.8651 22.365 22.4882C22.365 23.0946 21.9135 23.6128 21.315 23.6736Z" fill="white"/>
</svg>
