<svg width="31" height="31" viewBox="0 0 31 31" fill="none" xmlns="http://www.w3.org/2000/svg">
<path fill-rule="evenodd" clip-rule="evenodd" d="M4.62478 0.402344H10.1265C12.4051 0.402344 14.2513 2.29501 14.2513 4.63078V10.2708C14.2513 12.6066 12.4051 14.4992 10.1265 14.4992H4.62478C2.34627 14.4992 0.5 12.6066 0.5 10.2708V4.63078C0.5 2.29501 2.34627 0.402344 4.62478 0.402344ZM4.62478 16.6992H10.1265C12.4051 16.6992 14.2513 18.5919 14.2513 20.9277V26.5677C14.2513 28.9019 12.4051 30.7961 10.1265 30.7961H4.62478C2.34627 30.7961 0.5 28.9019 0.5 26.5677V20.9277C0.5 18.5919 2.34627 16.6992 4.62478 16.6992ZM26.0445 16.6992H20.5427C18.2642 16.6992 16.418 18.5919 16.418 20.9277V26.5677C16.418 28.9019 18.2642 30.7961 20.5427 30.7961H26.0445C28.323 30.7961 30.1693 28.9019 30.1693 26.5677V20.9277C30.1693 18.5919 28.323 16.6992 26.0445 16.6992Z" fill="#05697F"/>
<path d="M20.6248 0.402344H26.1265C28.4051 0.402344 30.2513 2.29501 30.2513 4.63078V10.2708C30.2513 12.605 28.4051 14.4992 26.1265 14.4992H20.6248C18.3463 14.4992 16.5 12.605 16.5 10.2708V4.63078C16.5 2.29501 18.3463 0.402344 20.6248 0.402344Z" fill="#05697F"/>
</svg>
